<svg xmlns="http://www.w3.org/2000/svg" width="51" height="28" fill="none" viewBox="0 0 51 28">
  <path fill="#fff" fill-rule="evenodd" d="M.323 3a3 3 0 0 1 3-3h44a3 3 0 0 1 3 3v22a3 3 0 0 1-3 3h-44a3 3 0 0 1-3-3V3Z" clip-rule="evenodd"/>
  <path stroke="#333" stroke-opacity=".2" d="M3.323.5h44a2.5 2.5 0 0 1 2.5 2.5v22a2.5 2.5 0 0 1-2.5 2.5h-44a2.5 2.5 0 0 1-2.5-2.5V3a2.5 2.5 0 0 1 2.5-2.5Z"/>
  <path fill="#333" fill-rule="evenodd" d="M24.584 16.62v-2.583h1.4c.578 0 1.063-.18 1.456-.543a1.74 1.74 0 0 0 .608-1.354 1.748 1.748 0 0 0-.608-1.346 2.072 2.072 0 0 0-1.456-.552h-2.248v6.378h.848Zm0-3.366v-2.226l1.421-.001c.317-.009.622.115.839.338.218.205.34.486.34.78 0 .293-.122.575-.34.78a1.14 1.14 0 0 1-.839.329h-1.421Zm6.9-.654c-.362-.325-.857-.486-1.483-.486-.805 0-1.413.285-1.823.855l.746.454a1.31 1.31 0 0 1 1.124-.579c.302-.003.594.103.818.299a.92.92 0 0 1 .35.725v.187c-.325-.178-.74-.267-1.243-.267-.59 0-1.06.134-1.414.401a1.28 1.28 0 0 0-.53 1.077c-.007.412.177.804.503 1.069.334.285.75.427 1.248.427.582 0 1.05-.249 1.4-.748h.037v.606h.81v-2.69c.001-.563-.18-1.007-.543-1.33Zm-2.299 3.218a.648.648 0 0 1-.28-.534c0-.238.115-.436.347-.598.23-.16.517-.241.861-.241.473 0 .841.102 1.106.305 0 .344-.14.644-.422.9a1.375 1.375 0 0 1-.953.382 1.057 1.057 0 0 1-.659-.214Zm7.496-3.562-2.83 6.288h-.875l1.05-2.2-1.86-4.088h.92l1.346 3.135h.018l1.308-3.135h.923Z" clip-rule="evenodd"/>
  <path fill="#4285F4" fill-rule="evenodd" d="M21.159 13.48c0-.25-.022-.5-.065-.745h-3.575v1.411h2.047a1.693 1.693 0 0 1-.757 1.113v.916h1.222c.716-.637 1.128-1.58 1.128-2.695Z" clip-rule="evenodd"/>
  <path fill="#34A853" fill-rule="evenodd" d="M17.52 17.061c1.022 0 1.883-.325 2.511-.884l-1.222-.916c-.34.222-.778.35-1.29.35a2.26 2.26 0 0 1-2.128-1.513h-1.258v.944c.643 1.238 1.953 2.019 3.386 2.019Z" clip-rule="evenodd"/>
  <path fill="#FBBC04" fill-rule="evenodd" d="M15.391 14.098a2.125 2.125 0 0 1 0-1.403v-.944h-1.258a3.555 3.555 0 0 0 0 3.291l1.258-.944Z" clip-rule="evenodd"/>
  <path fill="#EA4335" fill-rule="evenodd" d="M17.52 11.183a2.097 2.097 0 0 1 1.453.55l1.082-1.046a3.712 3.712 0 0 0-2.536-.954c-1.433 0-2.743.78-3.386 2.018l1.258.944a2.26 2.26 0 0 1 2.128-1.512Z" clip-rule="evenodd"/>
</svg>
