<svg xmlns="http://www.w3.org/2000/svg" width="51" height="28" fill="none" viewBox="0 0 51 28">
  <path fill="#0066B1" fill-rule="evenodd" d="M.774 3a3 3 0 0 1 3-3h44a3 3 0 0 1 3 3v22a3 3 0 0 1-3 3h-44a3 3 0 0 1-3-3V3Z" clip-rule="evenodd"/>
  <path fill="#fff" fill-rule="evenodd" d="M23.865 18.404h-2.267l1.418-8.517h2.266l-1.417 8.517Zm8.215-8.309a5.728 5.728 0 0 0-2.033-.362c-2.238 0-3.814 1.16-3.823 2.817-.019 1.224 1.128 1.903 1.986 2.31.877.418 1.175.69 1.175 1.061-.01.57-.709.834-1.361.834-.905 0-1.39-.136-2.127-.453l-.298-.136-.317 1.911c.531.235 1.51.444 2.527.453 2.378 0 3.926-1.141 3.945-2.908.009-.97-.597-1.712-1.903-2.32-.792-.389-1.278-.652-1.278-1.05.01-.363.41-.734 1.306-.734a3.948 3.948 0 0 1 1.688.326l.205.09.308-1.838Zm4.056-.208h1.753l1.828 8.517H37.62s-.205-.979-.27-1.278h-2.91l-.475 1.277h-2.378l3.366-7.809c.233-.553.644-.707 1.184-.707Zm-.14 3.117-.904 2.383h1.883c-.093-.426-.522-2.465-.522-2.465l-.158-.733c-.067.189-.163.448-.228.624-.044.118-.074.198-.07.191Z" clip-rule="evenodd"/>
  <path fill="#fff" d="M11.78 9.886h3.645c.494.018.895.172 1.026.716l.793 3.914-.002-.003.002.004.242 1.178 2.22-5.808h2.396l-3.562 8.508h-2.397l-2.02-7.402a9.396 9.396 0 0 0-2.381-.935l.037-.172Z"/>
</svg>
