<svg xmlns="http://www.w3.org/2000/svg" width="17" height="12" fill="none" viewBox="0 0 17 12">
  <path fill="#fff" d="M15.703 2.11H1.297a.767.767 0 0 1-.563-.235.767.767 0 0 1-.234-.563A.77.77 0 0 1 .734.75a.767.767 0 0 1 .563-.234h14.406a.77.77 0 0 1 .563.234.767.767 0 0 1 .234.563.767.767 0 0 1-.234.562.767.767 0 0 1-.563.234Zm0 4.796H1.297a.767.767 0 0 1-.563-.234.767.767 0 0 1-.234-.563c0-.218.078-.406.234-.562a.767.767 0 0 1 .563-.234h14.406a.77.77 0 0 1 .563.234.767.767 0 0 1 .234.562.767.767 0 0 1-.234.563.767.767 0 0 1-.563.234Zm0 4.813H1.297a.767.767 0 0 1-.563-.235.786.786 0 0 1-.234-.578c0-.219.078-.406.234-.562a.767.767 0 0 1 .563-.235h14.406a.77.77 0 0 1 .563.235.767.767 0 0 1 .234.562c0 .23-.078.422-.234.578a.767.767 0 0 1-.563.235Z"/>
</svg>
