<svg xmlns="http://www.w3.org/2000/svg" width="12" height="7" fill="none" viewBox="0 0 12 7">
  <path fill="#fff" d="M6 6.41a.448.448 0 0 1-.178-.038.535.535 0 0 1-.14-.101L.58 1.167a.536.536 0 0 1-.101-.14.448.448 0 0 1-.04-.177.43.43 0 0 1 .127-.318.451.451 0 0 1 .33-.14.36.36 0 0 1 .166.039c.059.025.11.059.152.101L6 5.318 10.786.532a.537.537 0 0 1 .14-.101.448.448 0 0 1 .178-.038c.127 0 .232.046.317.14a.41.41 0 0 1 .14.317.451.451 0 0 1-.038.177.788.788 0 0 1-.09.14L6.318 6.271a.48.48 0 0 1-.152.101A.364.364 0 0 1 6 6.41Z"/>
</svg>
