<svg width="135" height="40" viewBox="0 0 135 40" fill="none" xmlns="http://www.w3.org/2000/svg">
<path d="M130 39.5H5C2.48262 39.5 0.5 37.4304 0.5 35V5C0.5 2.48262 2.56962 0.5 5 0.5H130C132.517 0.5 134.5 2.56962 134.5 5V35C134.5 37.5239 132.524 39.5 130 39.5Z" fill="black" stroke="#A6A6A6"/>
<path d="M47.4 10.1999C47.4 10.9999 47.2 11.6999 46.7 12.1999C46.1 12.7999 45.4 13.0999 44.5 13.0999C43.6 13.0999 42.9 12.7999 42.3 12.1999C41.7 11.5999 41.4 10.8999 41.4 9.9999C41.4 9.0999 41.7 8.3999 42.3 7.7999C42.9 7.1999 43.6 6.8999 44.5 6.8999C44.9 6.8999 45.3 6.9999 45.7 7.1999C46.1 7.3999 46.4 7.5999 46.6 7.8999L46.1 8.3999C45.7 7.8999 45.2 7.6999 44.5 7.6999C43.9 7.6999 43.3 7.8999 42.9 8.3999C42.4 8.7999 42.2 9.3999 42.2 10.0999C42.2 10.7999 42.4 11.3999 42.9 11.7999C43.4 12.1999 43.9 12.4999 44.5 12.4999C45.2 12.4999 45.7 12.2999 46.2 11.7999C46.5 11.4999 46.7 11.0999 46.7 10.5999H44.5V9.7999H47.4C47.4 9.8999 47.4 10.0999 47.4 10.1999Z" fill="white"/>
<path d="M52 7.6999H49.3V9.5999H51.8V10.2999H49.3V12.1999H52V12.9999H48.5V6.9999H52V7.6999Z" fill="white"/>
<path d="M55.3 12.9999H54.5V7.6999H52.8V6.9999H57V7.6999H55.3V12.9999Z" fill="white"/>
<path d="M59.9 12.9999V6.9999H60.7V12.9999H59.9Z" fill="white"/>
<path d="M64.1 12.9999H63.3V7.6999H61.6V6.9999H65.7V7.6999H64V12.9999H64.1Z" fill="white"/>
<path d="M73.6 12.1999C73 12.7999 72.3 13.0999 71.4 13.0999C70.5 13.0999 69.8 12.7999 69.2 12.1999C68.6 11.5999 68.3 10.8999 68.3 9.9999C68.3 9.0999 68.6 8.3999 69.2 7.7999C69.8 7.1999 70.5 6.8999 71.4 6.8999C72.3 6.8999 73 7.1999 73.6 7.7999C74.2 8.3999 74.5 9.0999 74.5 9.9999C74.5 10.8999 74.2 11.5999 73.6 12.1999ZM69.8 11.6999C70.2 12.0999 70.8 12.3999 71.4 12.3999C72 12.3999 72.6 12.1999 73 11.6999C73.4 11.2999 73.7 10.6999 73.7 9.9999C73.7 9.2999 73.5 8.6999 73 8.2999C72.6 7.8999 72 7.5999 71.4 7.5999C70.8 7.5999 70.2 7.7999 69.8 8.2999C69.4 8.6999 69.1 9.2999 69.1 9.9999C69.1 10.6999 69.3 11.2999 69.8 11.6999Z" fill="white"/>
<path d="M75.6 12.9999V6.9999H76.5L79.4 11.6999V6.9999H80.2V12.9999H79.4L76.3 8.0999V12.9999H75.6Z" fill="white"/>
<path d="M47.4 10.1999C47.4 10.9999 47.2 11.6999 46.7 12.1999C46.1 12.7999 45.4 13.0999 44.5 13.0999C43.6 13.0999 42.9 12.7999 42.3 12.1999C41.7 11.5999 41.4 10.8999 41.4 9.9999C41.4 9.0999 41.7 8.3999 42.3 7.7999C42.9 7.1999 43.6 6.8999 44.5 6.8999C44.9 6.8999 45.3 6.9999 45.7 7.1999C46.1 7.3999 46.4 7.5999 46.6 7.8999L46.1 8.3999C45.7 7.8999 45.2 7.6999 44.5 7.6999C43.9 7.6999 43.3 7.8999 42.9 8.3999C42.4 8.7999 42.2 9.3999 42.2 10.0999C42.2 10.7999 42.4 11.3999 42.9 11.7999C43.4 12.1999 43.9 12.4999 44.5 12.4999C45.2 12.4999 45.7 12.2999 46.2 11.7999C46.5 11.4999 46.7 11.0999 46.7 10.5999H44.5V9.7999H47.4C47.4 9.8999 47.4 10.0999 47.4 10.1999Z" stroke="white" stroke-width="0.2" stroke-miterlimit="10"/>
<path d="M52 7.6999H49.3V9.5999H51.8V10.2999H49.3V12.1999H52V12.9999H48.5V6.9999H52V7.6999Z" stroke="white" stroke-width="0.2" stroke-miterlimit="10"/>
<path d="M55.3 12.9999H54.5V7.6999H52.8V6.9999H57V7.6999H55.3V12.9999Z" stroke="white" stroke-width="0.2" stroke-miterlimit="10"/>
<path d="M59.9 12.9999V6.9999H60.7V12.9999H59.9Z" stroke="white" stroke-width="0.2" stroke-miterlimit="10"/>
<path d="M64.1 12.9999H63.3V7.6999H61.6V6.9999H65.7V7.6999H64V12.9999H64.1Z" stroke="white" stroke-width="0.2" stroke-miterlimit="10"/>
<path d="M73.6 12.1999C73 12.7999 72.3 13.0999 71.4 13.0999C70.5 13.0999 69.8 12.7999 69.2 12.1999C68.6 11.5999 68.3 10.8999 68.3 9.9999C68.3 9.0999 68.6 8.3999 69.2 7.7999C69.8 7.1999 70.5 6.8999 71.4 6.8999C72.3 6.8999 73 7.1999 73.6 7.7999C74.2 8.3999 74.5 9.0999 74.5 9.9999C74.5 10.8999 74.2 11.5999 73.6 12.1999ZM69.8 11.6999C70.2 12.0999 70.8 12.3999 71.4 12.3999C72 12.3999 72.6 12.1999 73 11.6999C73.4 11.2999 73.7 10.6999 73.7 9.9999C73.7 9.2999 73.5 8.6999 73 8.2999C72.6 7.8999 72 7.5999 71.4 7.5999C70.8 7.5999 70.2 7.7999 69.8 8.2999C69.4 8.6999 69.1 9.2999 69.1 9.9999C69.1 10.6999 69.3 11.2999 69.8 11.6999Z" stroke="white" stroke-width="0.2" stroke-miterlimit="10"/>
<path d="M75.6 12.9999V6.9999H76.5L79.4 11.6999V6.9999H80.2V12.9999H79.4L76.3 8.0999V12.9999H75.6Z" stroke="white" stroke-width="0.2" stroke-miterlimit="10"/>
<path d="M68.1 21.8001C65.7 21.8001 63.8 23.6001 63.8 26.1001C63.8 28.5001 65.7 30.4001 68.1 30.4001C70.5 30.4001 72.4 28.6001 72.4 26.1001C72.4 23.5001 70.5 21.8001 68.1 21.8001ZM68.1 28.6001C66.8 28.6001 65.7 27.5001 65.7 26.0001C65.7 24.5001 66.8 23.4001 68.1 23.4001C69.4 23.4001 70.5 24.4001 70.5 26.0001C70.5 27.5001 69.4 28.6001 68.1 28.6001ZM58.8 21.8001C56.4 21.8001 54.5 23.6001 54.5 26.1001C54.5 28.5001 56.4 30.4001 58.8 30.4001C61.2 30.4001 63.1 28.6001 63.1 26.1001C63.1 23.5001 61.2 21.8001 58.8 21.8001ZM58.8 28.6001C57.5 28.6001 56.4 27.5001 56.4 26.0001C56.4 24.5001 57.5 23.4001 58.8 23.4001C60.1 23.4001 61.2 24.4001 61.2 26.0001C61.2 27.5001 60.1 28.6001 58.8 28.6001ZM47.7 23.1001V24.9001H52C51.9 25.9001 51.5 26.7001 51 27.2001C50.4 27.8001 49.4 28.5001 47.7 28.5001C45 28.5001 43 26.4001 43 23.7001C43 21.0001 45.1 18.9001 47.7 18.9001C49.1 18.9001 50.2 19.5001 51 20.2001L52.3 18.9001C51.2 17.9001 49.8 17.1001 47.8 17.1001C44.2 17.1001 41.1 20.1001 41.1 23.7001C41.1 27.3001 44.2 30.3001 47.8 30.3001C49.8 30.3001 51.2 29.7001 52.4 28.4001C53.6 27.2001 54 25.5001 54 24.2001C54 23.8001 54 23.4001 53.9 23.1001H47.7ZM93.1 24.5001C92.7 23.5001 91.7 21.8001 89.5 21.8001C87.3 21.8001 85.5 23.5001 85.5 26.1001C85.5 28.5001 87.3 30.4001 89.7 30.4001C91.6 30.4001 92.8 29.2001 93.2 28.5001L91.8 27.5001C91.3 28.2001 90.7 28.7001 89.7 28.7001C88.7 28.7001 88.1 28.3001 87.6 27.4001L93.3 25.0001L93.1 24.5001ZM87.3 25.9001C87.3 24.3001 88.6 23.4001 89.5 23.4001C90.2 23.4001 90.9 23.8001 91.1 24.3001L87.3 25.9001ZM82.6 30.0001H84.5V17.5001H82.6V30.0001ZM79.6 22.7001C79.1 22.2001 78.3 21.7001 77.3 21.7001C75.2 21.7001 73.2 23.6001 73.2 26.0001C73.2 28.4001 75.1 30.2001 77.3 30.2001C78.3 30.2001 79.1 29.7001 79.5 29.2001H79.6V29.8001C79.6 31.4001 78.7 32.3001 77.3 32.3001C76.2 32.3001 75.4 31.5001 75.2 30.8001L73.6 31.5001C74.1 32.6001 75.3 34.0001 77.4 34.0001C79.6 34.0001 81.4 32.7001 81.4 29.6001V22.0001H79.6V22.7001ZM77.4 28.6001C76.1 28.6001 75 27.5001 75 26.0001C75 24.5001 76.1 23.4001 77.4 23.4001C78.7 23.4001 79.7 24.5001 79.7 26.0001C79.7 27.5001 78.7 28.6001 77.4 28.6001ZM101.8 17.5001H97.3V30.0001H99.2V25.3001H101.8C103.9 25.3001 105.9 23.8001 105.9 21.4001C105.9 19.0001 103.9 17.5001 101.8 17.5001ZM101.9 23.5001H99.2V19.2001H101.9C103.3 19.2001 104.1 20.4001 104.1 21.3001C104 22.4001 103.2 23.5001 101.9 23.5001ZM113.4 21.7001C112 21.7001 110.6 22.3001 110.1 23.6001L111.8 24.3001C112.2 23.6001 112.8 23.4001 113.5 23.4001C114.5 23.4001 115.4 24.0001 115.5 25.0001V25.1001C115.2 24.9001 114.4 24.6001 113.6 24.6001C111.8 24.6001 110 25.6001 110 27.4001C110 29.1001 111.5 30.2001 113.1 30.2001C114.4 30.2001 115 29.6001 115.5 29.0001H115.6V30.0001H117.4V25.2001C117.2 23.0001 115.5 21.7001 113.4 21.7001ZM113.2 28.6001C112.6 28.6001 111.7 28.3001 111.7 27.5001C111.7 26.5001 112.8 26.2001 113.7 26.2001C114.5 26.2001 114.9 26.4001 115.4 26.6001C115.2 27.8001 114.2 28.6001 113.2 28.6001ZM123.7 22.0001L121.6 27.4001H121.5L119.3 22.0001H117.3L120.6 29.6001L118.7 33.8001H120.6L125.7 22.0001H123.7ZM106.9 30.0001H108.8V17.5001H106.9V30.0001Z" fill="white"/>
<path d="M10.4701 7.40008C10.1441 7.79119 9.97961 8.29187 10.0101 8.80008V30.9201C9.97961 31.4283 10.1441 31.929 10.4701 32.3201L10.5401 32.3901L22.9301 20.0101V19.7201L10.5401 7.33008L10.4701 7.40008Z" fill="url(#paint0_linear)"/>
<path d="M27.0301 24.1401L22.9301 20.0101V19.7201L27.0301 15.5801L27.1201 15.6301L32.0301 18.4201C33.4301 19.2101 33.4301 20.5101 32.0301 21.3101L27.1401 24.0901L27.0301 24.1401Z" fill="url(#paint1_linear)"/>
<path d="M27.15 24.0799L22.93 19.8599L10.47 32.3199C10.7553 32.5707 11.1194 32.714 11.4991 32.725C11.8789 32.7359 12.2506 32.6138 12.55 32.3799L27.16 24.0799" fill="url(#paint2_linear)"/>
<path d="M27.15 15.6399L12.54 7.33991C12.2406 7.10593 11.8689 6.98386 11.4891 6.99482C11.1094 7.00577 10.7453 7.14906 10.46 7.39991L22.93 19.8599L27.15 15.6399Z" fill="url(#paint3_linear)"/>
<path opacity="0.2" d="M27.0301 23.9897L12.5401 32.2397C12.2514 32.4556 11.9006 32.5722 11.5401 32.5722C11.1796 32.5722 10.8288 32.4556 10.5401 32.2397L10.4701 32.3097L10.5401 32.3797C10.8281 32.5971 11.1792 32.7148 11.5401 32.7148C11.901 32.7148 12.252 32.5971 12.5401 32.3797L27.1501 24.0797L27.0301 23.9897Z" fill="black"/>
<path opacity="0.12" d="M10.4701 32.1798C10.1441 31.7887 9.97961 31.288 10.0101 30.7798V30.9298C9.97961 31.438 10.1441 31.9387 10.4701 32.3298L10.5401 32.2598L10.4701 32.1798Z" fill="black"/>
<path opacity="0.12" d="M32.03 21.1599L27.03 23.9899L27.12 24.0799L32.03 21.2999C32.3086 21.169 32.5478 20.9669 32.7234 20.7141C32.8989 20.4613 33.0047 20.1666 33.03 19.8599C32.9738 20.1386 32.8544 20.4007 32.6811 20.626C32.5077 20.8514 32.285 21.034 32.03 21.1599Z" fill="black"/>
<path opacity="0.25" d="M12.54 7.4798L32.03 18.5598C32.285 18.6856 32.5077 18.8683 32.681 19.0936C32.8544 19.319 32.9738 19.5811 33.03 19.8598C33.0047 19.553 32.8989 19.2584 32.7233 19.0055C32.5478 18.7527 32.3086 18.5507 32.03 18.4198L12.54 7.3398C11.14 6.5498 10 7.2098 10 8.8098V8.9598C10.03 7.3498 11.15 6.6898 12.54 7.4798Z" fill="white"/>
<defs>
<linearGradient id="paint0_linear" x1="21.8301" y1="8.57008" x2="5.05005" y2="25.3501" gradientUnits="userSpaceOnUse">
<stop stop-color="#00A0FF"/>
<stop offset="0.01" stop-color="#00A1FF"/>
<stop offset="0.26" stop-color="#00BEFF"/>
<stop offset="0.51" stop-color="#00D2FF"/>
<stop offset="0.76" stop-color="#00DFFF"/>
<stop offset="1" stop-color="#00E3FF"/>
</linearGradient>
<linearGradient id="paint1_linear" x1="33.8601" y1="19.8601" x2="9.67006" y2="19.8601" gradientUnits="userSpaceOnUse">
<stop stop-color="#FFE000"/>
<stop offset="0.41" stop-color="#FFBD00"/>
<stop offset="0.78" stop-color="#FFA500"/>
<stop offset="1" stop-color="#FF9C00"/>
</linearGradient>
<linearGradient id="paint2_linear" x1="24.86" y1="22.1599" x2="2.09997" y2="44.9099" gradientUnits="userSpaceOnUse">
<stop stop-color="#FF3A44"/>
<stop offset="1" stop-color="#C31162"/>
</linearGradient>
<linearGradient id="paint3_linear" x1="7.32996" y1="0.0399117" x2="17.49" y2="10.1999" gradientUnits="userSpaceOnUse">
<stop stop-color="#32A071"/>
<stop offset="0.07" stop-color="#2DA771"/>
<stop offset="0.48" stop-color="#15CF74"/>
<stop offset="0.8" stop-color="#06E775"/>
<stop offset="1" stop-color="#00F076"/>
</linearGradient>
</defs>
</svg>
