<svg width="30" height="30" viewBox="0 0 30 30" fill="none" xmlns="http://www.w3.org/2000/svg">
<g clip-path="url(#clip0)">
<path d="M29.3626 10.7677C28.8107 10.0689 27.9879 9.66814 27.1052 9.66814H21.9164L23.1715 5.28826C23.7135 3.39715 22.3147 1.52344 20.3876 1.52344C19.5411 1.52344 18.7393 1.89721 18.1879 2.549L12.3287 9.47461C12.2246 9.5976 12.0766 9.66814 11.9227 9.66814H9.22582V9.08221C9.22582 8.43498 8.70117 7.91033 8.05395 7.91033H1.17188C0.524648 7.91033 0 8.43498 0 9.08221V27.3047C0 27.9519 0.524648 28.4766 1.17188 28.4766H8.054C8.70123 28.4766 9.22588 27.9519 9.22588 27.3047V26.7188H24.4444C25.7854 26.7188 26.9419 25.7948 27.2568 24.4719L29.9177 13.2946C30.1298 12.4038 29.9275 11.4828 29.3626 10.7677ZM6.88213 26.1328H2.34369V10.2541H6.88213C6.88213 10.6613 6.88213 25.7492 6.88213 26.1328ZM27.6377 12.7519L24.9768 23.9291C24.9143 24.1917 24.6953 24.3751 24.4443 24.3751H9.22582V12.0119H11.9227C12.7675 12.0119 13.5676 11.6389 14.1179 10.9884L19.9771 4.06283C20.3733 3.59443 21.0936 4.03143 20.9185 4.64256L19.5592 9.38607C19.1814 10.704 20.16 12.0119 21.5116 12.0119H27.1052C27.3258 12.0119 27.4619 12.1425 27.5234 12.2204C27.641 12.3693 27.6827 12.563 27.6377 12.7519Z" fill="#1169B6"/>
</g>
<defs>
<clipPath id="clip0">
<rect width="30" height="30" fill="white"/>
</clipPath>
</defs>
</svg>
