<svg width="30" height="30" viewBox="0 0 30 30" fill="none" xmlns="http://www.w3.org/2000/svg">
<path d="M15 0C6.70881 0 0 6.70992 0 15C0 23.2912 6.70998 30 15 30C23.2911 30 30 23.29 30 15C30 6.70881 23.29 0 15 0ZM15 27.6562C8.00432 27.6562 2.34375 21.9947 2.34375 15C2.34375 8.00426 8.00525 2.34375 15 2.34375C21.9957 2.34375 27.6562 8.00525 27.6562 15C27.6562 21.9956 21.9947 27.6562 15 27.6562Z" fill="#1169B6"/>
<path d="M19.3618 12.9784H18.3035L19.9817 8.50315C20.484 7.16352 19.4918 5.73231 18.0615 5.73231H13.4936C12.6436 5.73231 11.8719 6.26703 11.5734 7.06303L8.71696 14.6802C8.21457 16.0198 9.2068 17.4511 10.6371 17.4511H12.1578L10.6548 21.4915C10.3177 22.3904 10.6231 23.3592 11.4146 23.9025C12.2922 24.5047 13.3995 24.3204 14.0107 23.6733L20.7695 16.5208C22.1194 15.2495 21.2165 12.9784 19.3618 12.9784ZM13.3551 20.9545L14.9423 16.6878C15.2268 15.923 14.6603 15.1073 13.844 15.1073H11.0599L13.6966 8.07606H17.6388L15.5152 13.7389C15.2282 14.5041 15.7949 15.3222 16.6125 15.3222H18.6774L13.3551 20.9545Z" fill="#1169B6"/>
</svg>
