<svg width="240" height="50" viewBox="0 0 240 50" fill="none" xmlns="http://www.w3.org/2000/svg">
<path d="M46.08 38C45.4933 38 45 37.8 44.6 37.4C44.2 37 44 36.5067 44 35.92V8.84C44 8.22667 44.2 7.73333 44.6 7.36C45 6.96 45.4933 6.76 46.08 6.76C46.6933 6.76 47.1867 6.96 47.56 7.36C47.96 7.73333 48.16 8.22667 48.16 8.84V20.32H66.72V8.84C66.72 8.22667 66.92 7.73333 67.32 7.36C67.72 6.96 68.2133 6.76 68.8 6.76C69.4133 6.76 69.9067 6.96 70.28 7.36C70.6533 7.73333 70.84 8.22667 70.84 8.84V35.92C70.84 36.5067 70.6533 37 70.28 37.4C69.9067 37.8 69.4133 38 68.8 38C68.2133 38 67.72 37.8 67.32 37.4C66.92 37 66.72 36.5067 66.72 35.92V24H48.16V35.92C48.16 36.5067 47.96 37 47.56 37.4C47.1867 37.8 46.6933 38 46.08 38ZM82.3638 47.6C82.0971 47.6 81.7771 47.52 81.4038 47.36C80.2304 46.8267 79.9104 45.9867 80.4438 44.84L84.4438 35.84L75.4438 18.76C75.1771 18.2533 75.1371 17.7733 75.3238 17.32C75.5371 16.84 75.8971 16.4933 76.4038 16.28C76.9104 16.0667 77.3904 16.0533 77.8438 16.24C78.2971 16.4 78.6438 16.7333 78.8838 17.24L86.2038 31.8L92.6438 17.28C93.1771 16.16 94.0171 15.84 95.1638 16.32C96.3638 16.8267 96.6971 17.6667 96.1638 18.84L83.9238 46.36C83.6038 47.1867 83.0838 47.6 82.3638 47.6ZM102.046 47.36C101.46 47.36 100.966 47.16 100.566 46.76C100.193 46.3867 100.006 45.9067 100.006 45.32V27.08C100.033 24.9733 100.526 23.08 101.486 21.4C102.446 19.72 103.753 18.4 105.406 17.44C107.06 16.4533 108.926 15.96 111.006 15.96C113.113 15.96 114.993 16.4533 116.646 17.44C118.3 18.4 119.606 19.72 120.566 21.4C121.553 23.08 122.046 24.9733 122.046 27.08C122.046 29.1867 121.593 31.08 120.686 32.76C119.806 34.4133 118.593 35.7333 117.046 36.72C115.5 37.68 113.753 38.16 111.806 38.16C110.233 38.16 108.78 37.84 107.446 37.2C106.14 36.5333 105.02 35.64 104.086 34.52V45.32C104.086 45.9067 103.9 46.3867 103.526 46.76C103.153 47.16 102.66 47.36 102.046 47.36ZM111.006 34.56C112.366 34.56 113.58 34.24 114.646 33.6C115.713 32.9333 116.553 32.04 117.166 30.92C117.806 29.7733 118.126 28.4933 118.126 27.08C118.126 25.64 117.806 24.36 117.166 23.24C116.553 22.0933 115.713 21.2 114.646 20.56C113.58 19.8933 112.366 19.56 111.006 19.56C109.673 19.56 108.46 19.8933 107.366 20.56C106.3 21.2 105.46 22.0933 104.846 23.24C104.233 24.36 103.926 25.64 103.926 27.08C103.926 28.4933 104.233 29.7733 104.846 30.92C105.46 32.04 106.3 32.9333 107.366 33.6C108.46 34.24 109.673 34.56 111.006 34.56ZM138.411 38.16C136.198 38.16 134.225 37.6933 132.491 36.76C130.785 35.8 129.438 34.4933 128.451 32.84C127.491 31.16 127.011 29.24 127.011 27.08C127.011 24.8933 127.465 22.9733 128.371 21.32C129.305 19.64 130.585 18.3333 132.211 17.4C133.838 16.44 135.705 15.96 137.811 15.96C139.891 15.96 141.678 16.4267 143.171 17.36C144.665 18.2667 145.798 19.5333 146.571 21.16C147.371 22.76 147.771 24.6133 147.771 26.72C147.771 27.2267 147.598 27.6533 147.251 28C146.905 28.32 146.465 28.48 145.931 28.48H130.731C131.025 30.32 131.865 31.8267 133.251 33C134.665 34.1467 136.385 34.72 138.411 34.72C139.238 34.72 140.078 34.5733 140.931 34.28C141.811 33.96 142.518 33.6 143.051 33.2C143.451 32.9067 143.878 32.76 144.331 32.76C144.811 32.7333 145.225 32.8667 145.571 33.16C146.025 33.56 146.265 34 146.291 34.48C146.318 34.96 146.105 35.3733 145.651 35.72C144.745 36.44 143.611 37.0267 142.251 37.48C140.918 37.9333 139.638 38.16 138.411 38.16ZM137.811 19.4C135.838 19.4 134.251 19.9467 133.051 21.04C131.851 22.1333 131.091 23.5467 130.771 25.28H144.091C143.851 23.5733 143.198 22.1733 142.131 21.08C141.065 19.96 139.625 19.4 137.811 19.4ZM154.975 38C153.642 38 152.975 37.3333 152.975 36V18.12C152.975 16.7867 153.642 16.12 154.975 16.12C156.308 16.12 156.975 16.7867 156.975 18.12V18.88C157.775 17.9467 158.748 17.2133 159.895 16.68C161.068 16.1467 162.335 15.88 163.695 15.88C165.295 15.88 166.482 16.1467 167.255 16.68C168.055 17.1867 168.362 17.8 168.175 18.52C168.042 19.08 167.775 19.4533 167.375 19.64C166.975 19.8 166.508 19.8267 165.975 19.72C164.268 19.3733 162.735 19.3467 161.375 19.64C160.015 19.9333 158.935 20.48 158.135 21.28C157.362 22.08 156.975 23.0933 156.975 24.32V36C156.975 37.3333 156.308 38 154.975 38ZM174.868 38C174.281 38 173.788 37.8133 173.388 37.44C173.015 37.04 172.828 36.5467 172.828 35.96V18.16C172.828 17.5467 173.015 17.0533 173.388 16.68C173.788 16.3067 174.281 16.12 174.868 16.12C175.481 16.12 175.975 16.3067 176.348 16.68C176.721 17.0533 176.908 17.5467 176.908 18.16V35.96C176.908 36.5467 176.721 37.04 176.348 37.44C175.975 37.8133 175.481 38 174.868 38ZM174.868 12.56C174.148 12.56 173.521 12.3067 172.988 11.8C172.481 11.2667 172.228 10.64 172.228 9.92C172.228 9.2 172.481 8.58667 172.988 8.08C173.521 7.54667 174.148 7.28 174.868 7.28C175.588 7.28 176.201 7.54667 176.708 8.08C177.241 8.58667 177.508 9.2 177.508 9.92C177.508 10.64 177.241 11.2667 176.708 11.8C176.201 12.3067 175.588 12.56 174.868 12.56ZM194.418 38.16C192.258 38.16 190.352 37.6933 188.698 36.76C187.045 35.8 185.738 34.4933 184.778 32.84C183.845 31.16 183.378 29.24 183.378 27.08C183.378 24.8933 183.845 22.9733 184.778 21.32C185.738 19.64 187.045 18.3333 188.698 17.4C190.352 16.44 192.258 15.96 194.418 15.96C196.552 15.96 198.445 16.44 200.098 17.4C201.752 18.3333 203.045 19.64 203.978 21.32C204.938 22.9733 205.418 24.8933 205.418 27.08C205.418 29.24 204.952 31.16 204.018 32.84C203.085 34.4933 201.792 35.8 200.138 36.76C198.485 37.6933 196.578 38.16 194.418 38.16ZM194.418 34.56C195.805 34.56 197.032 34.24 198.098 33.6C199.165 32.96 199.992 32.08 200.578 30.96C201.192 29.84 201.498 28.5467 201.498 27.08C201.498 25.6133 201.192 24.32 200.578 23.2C199.992 22.0533 199.165 21.16 198.098 20.52C197.032 19.88 195.805 19.56 194.418 19.56C193.032 19.56 191.805 19.88 190.738 20.52C189.672 21.16 188.832 22.0533 188.218 23.2C187.605 24.32 187.298 25.6133 187.298 27.08C187.298 28.5467 187.605 29.84 188.218 30.96C188.832 32.08 189.672 32.96 190.738 33.6C191.805 34.24 193.032 34.56 194.418 34.56ZM213.531 38.04C212.944 38.04 212.451 37.8533 212.051 37.48C211.677 37.08 211.491 36.5867 211.491 36V18.16C211.491 17.5467 211.677 17.0533 212.051 16.68C212.451 16.3067 212.944 16.12 213.531 16.12C214.144 16.12 214.637 16.3067 215.011 16.68C215.384 17.0533 215.571 17.5467 215.571 18.16V18.6C216.397 17.7733 217.397 17.12 218.571 16.64C219.744 16.16 221.011 15.92 222.371 15.92C224.211 15.92 225.851 16.32 227.291 17.12C228.757 17.8933 229.904 19.04 230.731 20.56C231.584 22.08 232.011 23.9467 232.011 26.16V36C232.011 36.5867 231.811 37.08 231.411 37.48C231.037 37.8533 230.557 38.04 229.971 38.04C229.384 38.04 228.891 37.8533 228.491 37.48C228.117 37.08 227.931 36.5867 227.931 36V26.16C227.931 23.8933 227.317 22.24 226.091 21.2C224.891 20.1333 223.384 19.6 221.571 19.6C220.451 19.6 219.437 19.8267 218.531 20.28C217.624 20.7333 216.904 21.3467 216.371 22.12C215.837 22.8667 215.571 23.7333 215.571 24.72V36C215.571 36.5867 215.384 37.08 215.011 37.48C214.637 37.8533 214.144 38.04 213.531 38.04Z" fill="#333333"/>
<path d="M2.58661 13.5473C2.82073 10.9719 4.98006 9 7.56607 9H28.4339C31.0199 9 33.1793 10.9719 33.4134 13.5473L35.5043 36.5473C35.7705 39.4754 33.465 42 30.5248 42H5.47517C2.53501 42 0.229509 39.4754 0.495698 36.5473L2.58661 13.5473Z" fill="#F1BB2F"/>
<path d="M8.5 18C8.5 18 8.5 5 18 5C27.5 5 27.5 18 27.5 18" stroke="#1169B6" stroke-width="3" stroke-linecap="round" stroke-linejoin="round"/>
</svg>
