<svg width="46" height="46" viewBox="0 0 46 46" fill="none" xmlns="http://www.w3.org/2000/svg">
<g clip-path="url(#clip0)">
<path d="M45.9985 41.5078C45.9985 42.5002 45.1941 43.3047 44.2017 43.3047C39.5874 43.3047 39.3155 46 33.6007 46C27.8223 46 27.6802 43.3047 22.9997 43.3047C18.3856 43.3047 18.1137 46 12.3992 46C6.62923 46 6.4677 43.3047 1.79861 43.3047C0.806282 43.3047 0.00182143 42.5002 0.00182143 41.5078C0.00182143 40.5154 0.806193 39.7109 1.79861 39.7109C7.56855 39.7109 7.73009 42.4062 12.3992 42.4062C17.0133 42.4062 17.2852 39.7109 22.9997 39.7109C28.7472 39.7109 28.959 42.4062 33.6007 42.4062C38.2151 42.4062 38.4868 39.7109 44.2017 39.7109C45.1941 39.7109 45.9985 40.5154 45.9985 41.5078ZM1.79861 32.5234C3.33691 32.5234 4.50883 32.7278 5.47393 33.0224L0.156263 21.0332C-0.370311 19.8462 0.500454 18.5078 1.79861 18.5078H4.76327V8.98438C4.76327 7.99196 5.56764 7.1875 6.56006 7.1875H8.35684V1.79688C8.35684 0.804461 9.16121 0 10.1536 0C11.146 0 11.9504 0.804461 11.9504 1.79688V7.1875H13.7472C14.7395 7.1875 15.544 7.99196 15.544 8.98438V18.5078H19.1375V11.0508C19.1375 10.0584 19.9418 9.25391 20.9342 9.25391H23.7639V1.79688C23.7639 0.804461 24.5682 0 25.5607 0H34.8139C35.8062 0 36.6106 0.804461 36.6106 1.79688V9.25391H39.4405C40.4329 9.25391 41.2373 10.0584 41.2373 11.0508V18.5078H44.202C45.5005 18.5078 46.3707 19.8466 45.8444 21.0332L40.5267 33.0224C41.4918 32.7277 42.6638 32.5234 44.202 32.5234C45.1943 32.5234 45.9988 33.3279 45.9988 34.3203C45.9988 35.3127 45.1944 36.1172 44.202 36.1172C39.5877 36.1172 39.3157 38.8125 33.601 38.8125C27.8226 38.8125 27.6804 36.1172 22.9999 36.1172C18.3858 36.1172 18.114 38.8125 12.3995 38.8125C6.62951 38.8125 6.46797 36.1172 1.79888 36.1172C0.806552 36.1172 0.00209097 35.3127 0.00209097 34.3203C0.00209097 33.3279 0.806282 32.5234 1.79861 32.5234ZM34.8139 12.8477H31.984V18.5078H37.6437V12.8477H34.8139ZM27.3574 9.25391H30.1873H33.0172V3.59375H27.3574V9.25391H27.3574ZM22.7307 18.5078H28.3904V12.8477H25.5605H22.7307V18.5078ZM8.35675 18.5078H11.9502V10.7812H8.35675V18.5078ZM10.2878 35.0123C10.8669 35.1426 11.5419 35.2188 12.3993 35.2188C17.0134 35.2188 17.2852 32.5234 22.9998 32.5234C28.7473 32.5234 28.9591 35.2188 33.6008 35.2188C34.4583 35.2188 35.1335 35.1426 35.7126 35.0123L41.4392 22.1016C29.1349 22.1016 16.819 22.1016 4.56121 22.1016L10.2878 35.0123Z" fill="#1169B6"/>
</g>
<defs>
<clipPath id="clip0">
<rect width="46" height="46" fill="white"/>
</clipPath>
</defs>
</svg>
