<svg xmlns="http://www.w3.org/2000/svg" width="18" height="19" fill="none" viewBox="0 0 18 19">
  <path fill="#fff" d="m17.613 17.004-3.672-3.652a8.147 8.147 0 0 0 1.329-2.286 7.495 7.495 0 0 0 .488-2.714 7.457 7.457 0 0 0-.625-3.028 7.814 7.814 0 0 0-1.66-2.46 7.757 7.757 0 0 0-2.48-1.66A7.37 7.37 0 0 0 7.964.577a7.458 7.458 0 0 0-3.027.625 7.815 7.815 0 0 0-2.461 1.66 8.094 8.094 0 0 0-1.68 2.461A7.664 7.664 0 0 0 .19 8.352c0 1.08.202 2.09.606 3.027.417.95.976 1.777 1.68 2.48a7.814 7.814 0 0 0 2.46 1.66c.951.417 1.96.626 3.028.626.95 0 1.849-.163 2.695-.489a8.073 8.073 0 0 0 2.305-1.328L16.617 18a.823.823 0 0 0 .215.156c.091.04.182.059.273.059a.633.633 0 0 0 .489-.215.673.673 0 0 0 .156-.762.532.532 0 0 0-.137-.234Zm-14.16-4.121a6.623 6.623 0 0 1-1.387-2.031 6.385 6.385 0 0 1-.488-2.48c0-.886.163-1.72.488-2.5a6.551 6.551 0 0 1 1.368-2.013 6.557 6.557 0 0 1 2.05-1.386 6.082 6.082 0 0 1 2.48-.508c.886 0 1.713.17 2.481.508a6.31 6.31 0 0 1 2.032 1.386 6.127 6.127 0 0 1 1.367 2.012 6.22 6.22 0 0 1 .508 2.5c0 .872-.17 1.7-.508 2.48a6.349 6.349 0 0 1-1.367 2.032 6.488 6.488 0 0 1-2.032 1.367 6.083 6.083 0 0 1-2.48.508 6.22 6.22 0 0 1-2.5-.508 6.551 6.551 0 0 1-2.012-1.367Z"/>
</svg>
