<svg width="21" height="13" viewBox="0 0 21 13" fill="none" xmlns="http://www.w3.org/2000/svg">
<rect width="21" height="13" fill="#DB2E2E"/>
<path d="M21 3.00467H0V3.9858H21V3.00467Z" fill="white"/>
<path d="M21 0.980957H0V1.96209H21V0.980957Z" fill="white"/>
<path d="M21 5.02821H0V6.00934H21V5.02821Z" fill="white"/>
<path d="M21 6.99048H0V7.97161H21V6.99048Z" fill="white"/>
<path d="M21 9.01413H0V9.99526H21V9.01413Z" fill="white"/>
<path d="M21 10.9764H0V11.9575H21V10.9764Z" fill="white"/>
<path d="M8 0H0V6H8V0Z" fill="#2E4593"/>
<path d="M6.55104 1.22657L6.61226 1.47185L6.42859 1.34921L6.24492 1.47185L6.30614 1.22657L6.12247 1.10393H6.36737L6.42859 0.858643L6.48981 1.10393H6.73471L6.55104 1.22657Z" fill="white"/>
<path d="M6.55104 2.45304L6.61226 2.69832L6.42859 2.51436L6.24492 2.69832L6.30614 2.45304L6.12247 2.3304H6.36737L6.42859 2.08511L6.48982 2.3304H6.73471L6.55104 2.45304Z" fill="white"/>
<path d="M6.55104 3.6794L6.61226 3.92468L6.42859 3.74072L6.24492 3.92468L6.30614 3.6794L6.12247 3.55676H6.36737L6.42859 3.31147L6.48982 3.55676H6.73471L6.55104 3.6794Z" fill="white"/>
<path d="M6.55104 4.90583L6.61226 5.15112L6.42859 4.96715L6.24492 5.15112L6.30614 4.90583L6.12247 4.78319H6.36737L6.42859 4.53791L6.48982 4.78319H6.73471L6.55104 4.90583Z" fill="white"/>
<path d="M5.26533 1.22657L5.32656 1.47185L5.14288 1.34921L4.95921 1.47185L5.02043 1.22657L4.83676 1.10393H5.08166L5.14288 0.858643L5.20411 1.10393H5.44901L5.26533 1.22657Z" fill="white"/>
<path d="M5.26533 2.45304L5.32656 2.69832L5.14288 2.51436L4.95921 2.69832L5.02044 2.45304L4.83676 2.3304H5.08166L5.14288 2.08511L5.20411 2.3304H5.44901L5.26533 2.45304Z" fill="white"/>
<path d="M5.26533 3.6794L5.32656 3.92468L5.14288 3.74072L4.95921 3.92468L5.02044 3.6794L4.83676 3.55676H5.08166L5.14288 3.31147L5.20411 3.55676H5.44901L5.26533 3.6794Z" fill="white"/>
<path d="M5.26533 4.90583L5.32656 5.15112L5.14288 4.96715L4.95921 5.15112L5.02044 4.90583L4.83676 4.78319H5.08166L5.14288 4.53791L5.20411 4.78319H5.44901L5.26533 4.90583Z" fill="white"/>
<path d="M3.97963 1.22657L4.04085 1.47185L3.85718 1.34921L3.6735 1.47185L3.73473 1.22657L3.55106 1.10393H3.79595L3.85718 0.858643L3.9184 1.10393H4.1633L3.97963 1.22657Z" fill="white"/>
<path d="M3.97963 2.45304L4.04085 2.69832L3.85718 2.51436L3.6735 2.69832L3.73473 2.45304L3.55106 2.3304H3.79595L3.85718 2.08511L3.9184 2.3304H4.1633L3.97963 2.45304Z" fill="white"/>
<path d="M3.97963 3.6794L4.04085 3.92468L3.85718 3.74072L3.6735 3.92468L3.73473 3.6794L3.55106 3.55676H3.79595L3.85718 3.31147L3.9184 3.55676H4.1633L3.97963 3.6794Z" fill="white"/>
<path d="M3.97963 4.90583L4.04085 5.15112L3.85718 4.96715L3.6735 5.15112L3.73473 4.90583L3.55106 4.78319H3.79595L3.85718 4.53791L3.9184 4.78319H4.1633L3.97963 4.90583Z" fill="white"/>
<path d="M2.69389 1.22657L2.75512 1.47185L2.57144 1.34921L2.38777 1.47185L2.44899 1.22657L2.26532 1.10393H2.51022L2.57144 0.858643L2.63267 1.10393H2.87756L2.69389 1.22657Z" fill="white"/>
<path d="M2.69389 2.45304L2.75512 2.69832L2.57144 2.51436L2.38777 2.69832L2.44899 2.45304L2.26532 2.3304H2.51022L2.57144 2.08511L2.63267 2.3304H2.87756L2.69389 2.45304Z" fill="white"/>
<path d="M2.69389 3.6794L2.75512 3.92468L2.57144 3.74072L2.38777 3.92468L2.44899 3.6794L2.26532 3.55676H2.51022L2.57144 3.31147L2.63267 3.55676H2.87756L2.69389 3.6794Z" fill="white"/>
<path d="M2.69389 4.90583L2.75512 5.15112L2.57144 4.96715L2.38777 5.15112L2.44899 4.90583L2.26532 4.78319H2.51022L2.57144 4.53791L2.63267 4.78319H2.87756L2.69389 4.90583Z" fill="white"/>
<path d="M1.40819 1.22657L1.46941 1.47185L1.28574 1.34921L1.10206 1.47185L1.16329 1.22657L0.979614 1.10393H1.22451L1.28574 0.858643L1.34696 1.10393H1.59186L1.40819 1.22657Z" fill="white"/>
<path d="M1.40819 2.45304L1.46941 2.69832L1.28574 2.51436L1.10206 2.69832L1.16329 2.45304L0.979614 2.3304H1.22451L1.28574 2.08511L1.34696 2.3304H1.59186L1.40819 2.45304Z" fill="white"/>
<path d="M1.40819 3.6794L1.46941 3.92468L1.28574 3.74072L1.10206 3.92468L1.16329 3.6794L0.979614 3.55676H1.22451L1.28574 3.31147L1.34696 3.55676H1.59186L1.40819 3.6794Z" fill="white"/>
<path d="M1.40819 4.90583L1.46941 5.15112L1.28574 4.96715L1.10206 5.15112L1.16329 4.90583L0.979614 4.78319H1.22451L1.28574 4.53791L1.34696 4.78319H1.59186L1.40819 4.90583Z" fill="white"/>
<path d="M7.16331 1.83976L7.28576 2.08504L7.04086 1.9624L6.85719 2.08504L6.97964 1.83976L6.73474 1.71711H6.97964L7.04086 1.47183L7.16331 1.71711H7.40821L7.16331 1.83976Z" fill="white"/>
<path d="M7.16331 3.06612L7.28576 3.3114L7.04086 3.12744L6.85719 3.3114L6.97964 3.06612L6.73474 2.94347H6.97964L7.04086 2.69819L7.16331 2.94347H7.40821L7.16331 3.06612Z" fill="white"/>
<path d="M7.16331 4.29255L7.28576 4.53784L7.04086 4.35387L6.85719 4.53784L6.97964 4.29255L6.73474 4.16991H6.97964L7.04086 3.92463L7.16331 4.16991H7.40821L7.16331 4.29255Z" fill="white"/>
<path d="M7.16331 5.51891L7.28576 5.76419L7.04086 5.58023L6.85719 5.76419L6.97964 5.51891L6.73474 5.39627H6.97964L7.04086 5.15099L7.16331 5.39627H7.40821L7.16331 5.51891Z" fill="white"/>
<path d="M7.16331 0.613286L7.28576 0.858569L7.04086 0.735927L6.85719 0.858569L6.97964 0.613286L6.73474 0.490644H6.97964L7.04086 0.245361L7.16331 0.490644H7.40821L7.16331 0.613286Z" fill="white"/>
<path d="M5.9388 1.83976L6.00002 2.08504L5.81635 1.9624L5.63267 2.08504L5.6939 1.83976L5.51022 1.71711H5.75512L5.81635 1.47183L5.87757 1.71711H6.12247L5.9388 1.83976Z" fill="white"/>
<path d="M5.9388 3.06612L6.00002 3.3114L5.81635 3.12744L5.63267 3.3114L5.6939 3.06612L5.51022 2.94347H5.75512L5.81635 2.69819L5.87757 2.94347H6.12247L5.9388 3.06612Z" fill="white"/>
<path d="M5.9388 4.29255L6.00002 4.53784L5.81635 4.35387L5.63267 4.53784L5.6939 4.29255L5.51022 4.16991H5.75512L5.81635 3.92463L5.87757 4.16991H6.12247L5.9388 4.29255Z" fill="white"/>
<path d="M5.9388 5.51891L6.00002 5.76419L5.81635 5.58023L5.63267 5.76419L5.6939 5.51891L5.51022 5.39627H5.75512L5.81635 5.15099L5.87757 5.39627H6.12247L5.9388 5.51891Z" fill="white"/>
<path d="M5.93879 0.613286L6.00002 0.858569L5.81635 0.735927L5.63267 0.858569L5.6939 0.613286L5.51022 0.490644H5.75512L5.81635 0.245361L5.87757 0.490644H6.12247L5.93879 0.613286Z" fill="white"/>
<path d="M4.59187 1.83976L4.6531 2.08504L4.46942 1.9624L4.28575 2.08504L4.34697 1.83976L4.1633 1.71711H4.4082L4.46942 1.47183L4.53065 1.71711H4.77554L4.59187 1.83976Z" fill="white"/>
<path d="M4.59187 3.06612L4.6531 3.3114L4.46942 3.12744L4.28575 3.3114L4.34697 3.06612L4.1633 2.94347H4.4082L4.46942 2.69819L4.53065 2.94347H4.77554L4.59187 3.06612Z" fill="white"/>
<path d="M4.59187 4.29255L4.6531 4.53784L4.46942 4.35387L4.28575 4.53784L4.34697 4.29255L4.1633 4.16991H4.4082L4.46942 3.92463L4.53065 4.16991H4.77554L4.59187 4.29255Z" fill="white"/>
<path d="M4.59187 5.51891L4.6531 5.76419L4.46942 5.58023L4.28575 5.76419L4.34697 5.51891L4.1633 5.39627H4.4082L4.46942 5.15099L4.53065 5.39627H4.77554L4.59187 5.51891Z" fill="white"/>
<path d="M4.59187 0.613286L4.6531 0.858569L4.46942 0.735927L4.28575 0.858569L4.34697 0.613286L4.1633 0.490644H4.4082L4.46942 0.245361L4.53065 0.490644H4.77554L4.59187 0.613286Z" fill="white"/>
<path d="M3.30617 1.83976L3.36739 2.08504L3.18372 1.9624L3.00004 2.08504L3.06127 1.83976L2.87759 1.71711H3.12249L3.18372 1.47183L3.24494 1.71711H3.48984L3.30617 1.83976Z" fill="white"/>
<path d="M3.30617 3.06612L3.36739 3.3114L3.18372 3.12744L3.00004 3.3114L3.06127 3.06612L2.87759 2.94347H3.12249L3.18372 2.69819L3.24494 2.94347H3.48984L3.30617 3.06612Z" fill="white"/>
<path d="M3.30617 4.29255L3.36739 4.53784L3.18372 4.35387L3.00004 4.53784L3.06127 4.29255L2.87759 4.16991H3.12249L3.18372 3.92463L3.24494 4.16991H3.48984L3.30617 4.29255Z" fill="white"/>
<path d="M3.30617 5.51891L3.36739 5.76419L3.18372 5.58023L3.00004 5.76419L3.06127 5.51891L2.87759 5.39627H3.12249L3.18372 5.15099L3.24494 5.39627H3.48984L3.30617 5.51891Z" fill="white"/>
<path d="M3.30617 0.613286L3.36739 0.858569L3.18372 0.735927L3.00004 0.858569L3.06127 0.613286L2.87759 0.490644H3.12249L3.18372 0.245361L3.24494 0.490644H3.48984L3.30617 0.613286Z" fill="white"/>
<path d="M2.02046 1.83976L2.14291 2.08504L1.89801 1.9624L1.71434 2.08504L1.83679 1.83976L1.59189 1.71711H1.83679L1.89801 1.47183L2.02046 1.71711H2.26536L2.02046 1.83976Z" fill="white"/>
<path d="M2.02046 3.06612L2.14291 3.3114L1.89801 3.12744L1.71434 3.3114L1.83679 3.06612L1.59189 2.94347H1.83679L1.89801 2.69819L2.02046 2.94347H2.26536L2.02046 3.06612Z" fill="white"/>
<path d="M2.02046 4.29255L2.14291 4.53784L1.89801 4.35387L1.71434 4.53784L1.83679 4.29255L1.59189 4.16991H1.83679L1.89801 3.92463L2.02046 4.16991H2.26536L2.02046 4.29255Z" fill="white"/>
<path d="M2.02046 5.51891L2.14291 5.76419L1.89801 5.58023L1.71434 5.76419L1.83679 5.51891L1.59189 5.39627H1.83679L1.89801 5.15099L2.02046 5.39627H2.26536L2.02046 5.51891Z" fill="white"/>
<path d="M2.02046 0.613286L2.14291 0.858569L1.89801 0.735927L1.71434 0.858569L1.83679 0.613286L1.59189 0.490644H1.83679L1.89801 0.245361L2.02046 0.490644H2.26536L2.02046 0.613286Z" fill="white"/>
<path d="M0.734724 1.83976L0.857173 2.08504L0.673499 1.9624L0.612275 1.90108V1.9624L0.428601 2.08504L0.55105 1.83976L0.306152 1.71711H0.55105L0.612275 1.47183L0.734724 1.71711H0.979622L0.734724 1.83976Z" fill="white"/>
<path d="M0.734724 3.06612L0.857173 3.3114L0.673499 3.12744H0.612275L0.428601 3.3114L0.55105 3.06612L0.306152 2.94347H0.55105L0.612275 2.69819L0.734724 2.94347H0.979622L0.734724 3.06612Z" fill="white"/>
<path d="M0.734724 4.29255L0.857173 4.53784L0.673499 4.35387H0.612275L0.428601 4.53784L0.55105 4.29255L0.306152 4.16991H0.55105L0.612275 3.92463L0.734724 4.16991H0.979622L0.734724 4.29255Z" fill="white"/>
<path d="M0.734724 5.51891L0.857173 5.76419L0.673499 5.58023H0.612275L0.428601 5.76419L0.55105 5.51891L0.306152 5.39627H0.55105L0.612275 5.15099L0.734724 5.39627H0.979622L0.734724 5.51891Z" fill="white"/>
<path d="M0.734724 0.613286L0.857173 0.858569L0.673499 0.735927H0.612275L0.428601 0.858569L0.55105 0.613286L0.306152 0.490644H0.55105L0.612275 0.245361L0.734724 0.490644H0.979622L0.734724 0.613286Z" fill="white"/>
</svg>
