<svg xmlns="http://www.w3.org/2000/svg" width="51" height="28" fill="none" viewBox="0 0 51 28">
  <path fill="#D9DDE3" fill-rule="evenodd" d="M.677 3a3 3 0 0 1 3-3h44a3 3 0 0 1 3 3v22a3 3 0 0 1-3 3h-44a3 3 0 0 1-3-3V3Z" clip-rule="evenodd"/>
  <path fill="#414042" d="M30.112 17.563c-.566.148-1.302.221-1.942.221-1.643 0-2.73-.867-2.73-2.454 0-1.502 1.012-2.476 2.496-2.476.33 0 .682.042.895.148v-2.18h1.28v6.74Zm-1.28-3.44c-.203-.095-.47-.147-.79-.147-.779 0-1.301.476-1.301 1.312 0 .9.565 1.407 1.472 1.407.16 0 .405-.01.619-.053v-2.518Zm11.784 3.44c-.566.148-1.302.221-1.942.221-1.643 0-2.731-.867-2.731-2.454 0-1.502 1.014-2.476 2.497-2.476.33 0 .682.042.896.148v-2.18h1.28v6.74Zm-1.28-3.44c-.203-.095-.47-.147-.79-.147-.778 0-1.301.476-1.301 1.312 0 .9.565 1.407 1.472 1.407.16 0 .405-.01.619-.053v-2.518Zm-7.211-.01c.213-.085.511-.116.767-.116.79 0 1.334.455 1.334 1.27 0 .96-.603 1.395-1.408 1.406v1.11l.064.001c1.653 0 2.646-.92 2.646-2.56 0-1.492-1.056-2.37-2.614-2.37-.79 0-1.568.18-2.08.392v6.338h1.29v-5.47Z"/>
  <path fill="url(#a)" d="M18.491 13.802a.2.2 0 0 1-.187-.004l-.304-.18a.2.2 0 0 1-.065-.068l-.003-.005a.2.2 0 0 1-.032-.095l-.008-.352a.196.196 0 0 1 .09-.163l3.66-2.114-5.135-2.775A.439.439 0 0 0 16.302 8a.44.44 0 0 0-.206.046l-5.134 2.776 5.751 3.32a.194.194 0 0 1 .094.16v4.845c0 .06-.044.13-.098.159l-.31.17a.201.201 0 0 1-.092.02h-.006a.204.204 0 0 1-.098-.02l-.311-.17a.196.196 0 0 1-.096-.16v-4.318a.121.121 0 0 0-.052-.085l-5.067-2.926v5.73a.45.45 0 0 0 .203.352l5.219 3.053a.41.41 0 0 0 .203.048.41.41 0 0 0 .202-.048l5.22-3.053a.452.452 0 0 0 .201-.351v-5.73l-3.434 1.984Z"/>
  <defs>
    <linearGradient id="a" x1="10.732" x2="16.389" y1="19.033" y2="14.247" gradientUnits="userSpaceOnUse">
      <stop stop-color="#A90034"/>
      <stop offset=".272" stop-color="#B03"/>
      <stop offset=".723" stop-color="#D30032"/>
      <stop offset="1" stop-color="#DC0032"/>
    </linearGradient>
  </defs>
</svg>
