<svg xmlns="http://www.w3.org/2000/svg" width="51" height="28" fill="none" viewBox="0 0 51 28">
  <path fill="#5926BC" fill-rule="evenodd" d="M.677 3a3 3 0 0 1 3-3h44a3 3 0 0 1 3 3v22a3 3 0 0 1-3 3h-44a3 3 0 0 1-3-3V3Z" clip-rule="evenodd"/>
  <path fill="#FF5900" d="m37.22 12.665 1.318 1.548 1.27-1.547h2.71l-2.649 3.173 2.685 3.199h-2.82l-1.306-1.56-1.294 1.56h-2.723l2.662-3.186-2.662-3.187h2.809Zm-2.809 0v2.154h-3.014v1.975h3.014v2.244h-5.23V9h5.23v2.237h-3.014v1.428h3.014Z"/>
  <path fill="#F4F0FC" d="M26.975 9v4.108h-.024c-.489-.598-1.1-.806-1.807-.806-1.45 0-2.543 1.05-2.926 2.44-.438-1.53-1.567-2.469-3.24-2.469-1.358 0-2.43.65-2.99 1.708v-1.316H13.18v-1.428h3.064V9h-5.566v10.038h2.502v-4.22h2.495c-.074.31-.114.642-.114.993 0 2.093 1.502 3.563 3.418 3.563 1.611 0 2.674-.806 3.235-2.275h-2.145c-.29.442-.51.572-1.09.572-.673 0-1.253-.624-1.253-1.366h4.368c.19 1.663 1.406 3.098 3.074 3.098.72 0 1.38-.378 1.782-1.014h.025v.65h2.206V9h-2.206Zm-9.179 5.848c.14-.637.604-1.054 1.183-1.054.638 0 1.079.404 1.195 1.054h-2.378Zm7.84 2.662c-.813 0-1.319-.808-1.319-1.65 0-.901.44-1.768 1.319-1.768.912 0 1.274.867 1.274 1.767 0 .854-.384 1.65-1.274 1.65Z"/>
</svg>
