<svg xmlns="http://www.w3.org/2000/svg" width="51" height="28" fill="none" viewBox="0 0 51 28">
  <path fill="#002F86" fill-rule="evenodd" d="M.677 3a3 3 0 0 1 3-3h44a3 3 0 0 1 3 3v22a3 3 0 0 1-3 3h-44a3 3 0 0 1-3-3V3Z" clip-rule="evenodd"/>
  <path fill="#fff" d="M27.445 11.7H26.1a.383.383 0 0 0-.32.178l-1.854 2.855-.785-2.743a.391.391 0 0 0-.372-.29h-1.32c-.16 0-.272.164-.22.322l1.479 4.541-1.392 2.053c-.109.161.002.384.19.384h1.342a.384.384 0 0 0 .32-.174l4.467-6.744c.107-.161-.004-.382-.191-.382Zm-8.982 2.72c-.129.8-.735 1.336-1.508 1.336-.388 0-.698-.13-.898-.378-.197-.244-.272-.593-.21-.981.121-.792.737-1.345 1.499-1.345.38 0 .687.131.89.38.205.252.286.602.227.989Zm1.863-2.72h-1.337a.236.236 0 0 0-.23.206l-.058.39-.093-.141c-.29-.44-.935-.586-1.58-.586-1.476 0-2.737 1.17-2.983 2.811-.128.82.054 1.602.498 2.148.408.501.99.71 1.683.71 1.19 0 1.85-.8 1.85-.8l-.06.39c-.022.147.088.28.23.28h1.204a.393.393 0 0 0 .383-.342l.723-4.785a.24.24 0 0 0-.23-.28Zm-8.02.034c-.153 1.048-.918 1.048-1.658 1.048h-.421l.295-1.957a.236.236 0 0 1 .23-.205h.193c.504 0 .98 0 1.225.3.147.18.19.446.136.814ZM11.982 9h-2.79a.394.394 0 0 0-.384.342L7.68 16.827c-.022.148.087.281.23.281h1.333c.19 0 .353-.145.383-.342l.305-2.02a.393.393 0 0 1 .383-.342h.883c1.838 0 2.9-.93 3.177-2.774.124-.807.005-1.44-.356-1.884-.397-.488-1.1-.746-2.035-.746Z"/>
  <path fill="#65CEFB" d="m41.923 10.2-1.147 7.4a.235.235 0 0 0 .23.273h1.154a.39.39 0 0 0 .383-.332l1.132-7.269a.235.235 0 0 0-.23-.273h-1.292a.234.234 0 0 0-.23.2Zm-3.443 5.064c-.13.776-.737 1.296-1.511 1.296-.388 0-.7-.126-.899-.366-.198-.238-.273-.576-.21-.953.12-.77.738-1.306 1.5-1.306.38 0 .689.127.893.37.205.243.285.584.227.96Zm1.865-2.642h-1.338a.234.234 0 0 0-.23.2l-.06.38-.093-.138c-.29-.427-.936-.57-1.581-.57-1.479 0-2.742 1.137-2.988 2.73-.128.796.054 1.556.498 2.086.409.487.992.69 1.686.69 1.192 0 1.853-.776 1.853-.776l-.06.377a.235.235 0 0 0 .23.273h1.206a.39.39 0 0 0 .384-.332l.724-4.647a.235.235 0 0 0-.23-.273Zm-8.032.033c-.153 1.017-.92 1.017-1.661 1.017h-.422l.296-1.9a.234.234 0 0 1 .23-.199h.194c.504 0 .98 0 1.227.292.147.174.191.433.136.79ZM31.99 10h-2.795a.39.39 0 0 0-.384.333L27.68 17.6a.235.235 0 0 0 .23.273h1.434a.273.273 0 0 0 .268-.232l.321-2.061a.39.39 0 0 1 .384-.333h.884c1.841 0 2.904-.903 3.182-2.694.125-.783.005-1.399-.357-1.83-.397-.473-1.102-.724-2.037-.724"/>
</svg>
