<svg xmlns="http://www.w3.org/2000/svg" width="20" height="19" fill="none" viewBox="0 0 20 19">
  <path fill="#fff" d="M1.375 10.508h15.234l-6.539 6.515a.888.888 0 0 0-.187.282.958.958 0 0 0-.047.304c0 .235.078.438.234.61a.847.847 0 0 0 .586.234.725.725 0 0 0 .328-.07c.11-.047.204-.102.282-.164l7.945-7.969a.657.657 0 0 0 .164-.258.827.827 0 0 0 .07-.328c0-.11-.023-.21-.07-.305a.638.638 0 0 0-.164-.28l-7.945-7.946a.886.886 0 0 0-.282-.188.725.725 0 0 0-.328-.07.808.808 0 0 0-.586.258.795.795 0 0 0-.234.586c0 .11.016.218.047.328a.99.99 0 0 0 .187.258l6.54 6.539H1.374a.795.795 0 0 0-.586.234.795.795 0 0 0-.234.586.88.88 0 0 0 .234.61.795.795 0 0 0 .586.234Z"/>
</svg>
