<svg width="120" height="40" viewBox="0 0 120 40" fill="none" xmlns="http://www.w3.org/2000/svg">
<rect x="0.5" y="0.5" width="119" height="39" rx="6.5" fill="white" stroke="#000001"/>
<path d="M24.9999 19.8999C24.9999 16.9999 27.2999 15.5999 27.4999 15.5999C26.1999 13.5999 24.0999 13.3999 23.2999 13.3999C21.5999 13.1999 19.8999 14.3999 18.9999 14.3999C18.0999 14.3999 16.6999 13.3999 15.1999 13.3999C13.2999 13.3999 11.4999 14.4999 10.4999 16.1999C8.49994 19.6999 9.99994 24.7999 11.8999 27.5999C12.8999 28.9999 13.9999 30.4999 15.4999 30.4999C16.8999 30.3999 17.4999 29.5999 19.1999 29.5999C20.8999 29.5999 21.3999 30.4999 22.8999 30.4999C24.3999 30.4999 25.3999 29.0999 26.3999 27.6999C27.4999 26.0999 27.9999 24.5999 27.9999 24.4999C27.9999 24.4999 24.9999 23.2999 24.9999 19.8999Z" fill="#000001"/>
<path d="M22.1999 11.4999C22.9999 10.4999 23.4999 9.1999 23.3999 7.8999C22.2999 7.8999 20.8999 8.6999 20.0999 9.5999C19.3999 10.3999 18.6999 11.7999 18.8999 13.0999C20.0999 13.1999 21.2999 12.3999 22.1999 11.4999Z" fill="#000001"/>
<path d="M42.3 27.0999H37.6L36.5 30.4999H34.5L39 18.0999H41L45.5 30.4999H43.5L42.3 27.0999ZM38.1 25.5999H41.9L40 20.0999H39.9L38.1 25.5999Z" fill="#000001"/>
<path d="M55.2 25.9999C55.2 28.7999 53.7 30.5999 51.4 30.5999C50.1 30.5999 49.1 29.9999 48.6 28.9999V33.4999H46.7V21.4999H48.5V22.9999C49 21.9999 50.1 21.3999 51.4 21.3999C53.6 21.2999 55.2 23.1999 55.2 25.9999ZM53.2 25.9999C53.2 24.1999 52.3 22.9999 50.8 22.9999C49.4 22.9999 48.4 24.1999 48.4 25.9999C48.4 27.7999 49.4 28.9999 50.8 28.9999C52.3 28.9999 53.2 27.7999 53.2 25.9999Z" fill="#000001"/>
<path d="M65.1 25.9999C65.1 28.7999 63.6 30.5999 61.3 30.5999C60 30.5999 59 29.9999 58.5 28.9999V33.4999H56.6V21.4999H58.4V22.9999C58.9 21.9999 60 21.3999 61.3 21.3999C63.6 21.2999 65.1 23.1999 65.1 25.9999ZM63.2 25.9999C63.2 24.1999 62.3 22.9999 60.8 22.9999C59.4 22.9999 58.4 24.1999 58.4 25.9999C58.4 27.7999 59.4 28.9999 60.8 28.9999C62.3 28.9999 63.2 27.7999 63.2 25.9999Z" fill="#000001"/>
<path d="M71.7 26.9999C71.8 28.1999 73 28.9999 74.7 28.9999C76.3 28.9999 77.4 28.1999 77.4 27.0999C77.4 26.0999 76.7 25.5999 75.1 25.1999L73.5 24.7999C71.2 24.1999 70.2 23.1999 70.2 21.4999C70.2 19.3999 72.1 17.8999 74.7 17.8999C77.3 17.8999 79.1 19.3999 79.2 21.4999H77.3C77.2 20.2999 76.2 19.4999 74.7 19.4999C73.2 19.4999 72.2 20.2999 72.2 21.3999C72.2 22.2999 72.9 22.7999 74.5 23.1999L75.9 23.4999C78.4 24.0999 79.5 25.0999 79.5 26.8999C79.5 29.1999 77.7 30.6999 74.7 30.6999C71.9 30.6999 70.1 29.2999 70 26.9999H71.7Z" fill="#000001"/>
<path d="M83.3 19.2999V21.3999H85V22.8999H83.3V27.8999C83.3 28.6999 83.6 28.9999 84.4 28.9999C84.6 28.9999 84.9 28.9999 85 28.9999V30.4999C84.8 30.5999 84.4 30.5999 84 30.5999C82.2 30.5999 81.5 29.8999 81.5 28.1999V22.9999H80.2V21.4999H81.5V19.3999H83.3V19.2999Z" fill="#000001"/>
<path d="M86.1 25.9999C86.1 23.1999 87.8 21.3999 90.4 21.3999C93 21.3999 94.7 23.1999 94.7 25.9999C94.7 28.8999 93 30.5999 90.4 30.5999C87.7 30.5999 86.1 28.7999 86.1 25.9999ZM92.8 25.9999C92.8 23.9999 91.9 22.8999 90.4 22.8999C88.9 22.8999 88 23.9999 88 25.9999C88 27.9999 88.9 29.0999 90.4 29.0999C91.9 29.0999 92.8 27.8999 92.8 25.9999Z" fill="#000001"/>
<path d="M96.2 21.3999H98V22.9999C98.3 21.9999 99.1 21.3999 100.2 21.3999C100.5 21.3999 100.7 21.3999 100.8 21.4999V23.1999C100.7 23.0999 100.3 23.0999 100 23.0999C98.8 23.0999 98.1 23.8999 98.1 25.1999V30.5999H96.2V21.3999Z" fill="#000001"/>
<path d="M109.4 27.7999C109.1 29.3999 107.5 30.5999 105.5 30.5999C102.9 30.5999 101.2 28.7999 101.2 25.9999C101.2 23.1999 102.8 21.2999 105.4 21.2999C107.9 21.2999 109.5 22.9999 109.5 25.7999V26.3999H103.1V26.4999C103.1 27.9999 104.1 29.0999 105.5 29.0999C106.5 29.0999 107.3 28.5999 107.6 27.7999H109.4ZM103.1 25.0999H107.6C107.6 23.6999 106.7 22.7999 105.4 22.7999C104.1 22.7999 103.2 23.7999 103.1 25.0999Z" fill="#000001"/>
<path d="M37.8 8.6999C39.6 8.6999 40.6 9.7999 40.6 11.6999C40.6 13.5999 39.6 14.6999 37.8 14.6999H35.6V8.6999H37.8ZM36.6 13.8999H37.7C38.9 13.8999 39.7 13.0999 39.7 11.7999C39.7 10.4999 39 9.6999 37.7 9.6999H36.6V13.8999Z" fill="#000001"/>
<path d="M41.7 12.3999C41.7 10.8999 42.5 10.0999 43.8 10.0999C45.1 10.0999 45.9 10.9999 45.9 12.3999C45.9 13.8999 45.1 14.6999 43.8 14.6999C42.5 14.7999 41.7 13.8999 41.7 12.3999ZM45 12.3999C45 11.3999 44.6 10.8999 43.8 10.8999C43 10.8999 42.6 11.4999 42.6 12.3999C42.6 13.3999 43 13.9999 43.8 13.9999C44.6 13.9999 45 13.3999 45 12.3999Z" fill="#000001"/>
<path d="M51.6 14.6999H50.7L49.8 11.3999H49.7L48.8 14.6999H47.9L46.7 10.1999H47.6L48.4 13.5999H48.5L49.4 10.1999H50.3L51.2 13.5999H51.3L52.1 10.1999H53L51.6 14.6999Z" fill="#000001"/>
<path d="M53.9 10.1999H54.8V10.8999H54.9C55.1 10.3999 55.6 10.0999 56.2 10.0999C57.2 10.0999 57.8 10.6999 57.8 11.7999V14.6999H56.9V11.9999C56.9 11.2999 56.6 10.8999 55.9 10.8999C55.2 10.8999 54.8 11.2999 54.8 11.9999V14.5999H53.9V10.1999Z" fill="#000001"/>
<path d="M59.1 8.3999H60V14.6999H59.1V8.3999Z" fill="#000001"/>
<path d="M61.2 12.3999C61.2 10.8999 62 10.0999 63.3 10.0999C64.6 10.0999 65.4 10.9999 65.4 12.3999C65.4 13.8999 64.6 14.6999 63.3 14.6999C62 14.7999 61.2 13.8999 61.2 12.3999ZM64.6 12.3999C64.6 11.3999 64.2 10.8999 63.4 10.8999C62.6 10.8999 62.2 11.4999 62.2 12.3999C62.2 13.3999 62.6 13.9999 63.4 13.9999C64.1 13.9999 64.6 13.3999 64.6 12.3999Z" fill="#000001"/>
<path d="M66.4 13.3999C66.4 12.5999 67 12.0999 68.1 12.0999L69.3 11.9999V11.5999C69.3 11.0999 69 10.8999 68.4 10.8999C67.9 10.8999 67.6 11.0999 67.5 11.3999H66.6C66.7 10.5999 67.4 10.0999 68.4 10.0999C69.5 10.0999 70.2 10.6999 70.2 11.5999V14.6999H69.3V14.0999H69.2C68.9 14.5999 68.4 14.7999 67.8 14.7999C67 14.7999 66.4 14.1999 66.4 13.3999ZM69.3 12.9999V12.5999L68.2 12.6999C67.6 12.6999 67.3 12.9999 67.3 13.2999C67.3 13.6999 67.7 13.8999 68.1 13.8999C68.8 13.9999 69.3 13.5999 69.3 12.9999Z" fill="#000001"/>
<path d="M71.3 12.3999C71.3 10.9999 72 10.0999 73.2 10.0999C73.8 10.0999 74.3 10.3999 74.6 10.8999H74.7V8.3999H75.6V14.6999H74.7V13.9999H74.6C74.3 14.4999 73.8 14.7999 73.2 14.7999C72.1 14.7999 71.3 13.8999 71.3 12.3999ZM72.3 12.3999C72.3 13.3999 72.8 13.8999 73.5 13.8999C74.2 13.8999 74.7 13.2999 74.7 12.3999C74.7 11.4999 74.2 10.8999 73.5 10.8999C72.7 10.8999 72.3 11.4999 72.3 12.3999Z" fill="#000001"/>
<path d="M79.2 12.3999C79.2 10.8999 80 10.0999 81.3 10.0999C82.6 10.0999 83.4 10.9999 83.4 12.3999C83.4 13.8999 82.6 14.6999 81.3 14.6999C80 14.7999 79.2 13.8999 79.2 12.3999ZM82.6 12.3999C82.6 11.3999 82.2 10.8999 81.4 10.8999C80.6 10.8999 80.2 11.4999 80.2 12.3999C80.2 13.3999 80.6 13.9999 81.4 13.9999C82.1 13.9999 82.6 13.3999 82.6 12.3999Z" fill="#000001"/>
<path d="M84.7 10.1999H85.6V10.8999H85.7C85.9 10.3999 86.4 10.0999 87 10.0999C88 10.0999 88.6 10.6999 88.6 11.7999V14.6999H87.7V11.9999C87.7 11.2999 87.4 10.8999 86.7 10.8999C86 10.8999 85.6 11.2999 85.6 11.9999V14.5999H84.7V10.1999Z" fill="#000001"/>
<path d="M93.5 9.0999V10.1999H94.5V10.9999H93.5V13.2999C93.5 13.7999 93.7 13.9999 94.1 13.9999C94.2 13.9999 94.3 13.9999 94.4 13.9999V14.6999C94.3 14.6999 94.1 14.6999 93.9 14.6999C92.9 14.6999 92.5 14.3999 92.5 13.4999V10.9999H91.8V10.2999H92.5V9.0999H93.5Z" fill="#000001"/>
<path d="M95.7 8.3999H96.6V10.8999H96.7C96.9 10.3999 97.4 10.0999 98.1 10.0999C99.1 10.0999 99.7 10.6999 99.7 11.7999V14.6999H98.8V11.9999C98.8 11.2999 98.5 10.8999 97.8 10.8999C97.1 10.8999 96.7 11.3999 96.7 11.9999V14.5999H95.8V8.3999H95.7Z" fill="#000001"/>
<path d="M104.8 13.4999C104.6 14.2999 103.9 14.7999 102.8 14.7999C101.5 14.7999 100.7 13.8999 100.7 12.4999C100.7 11.0999 101.5 10.0999 102.8 10.0999C104.1 10.0999 104.8 10.9999 104.8 12.3999V12.6999H101.6C101.6 13.4999 102.1 13.9999 102.8 13.9999C103.3 13.9999 103.7 13.7999 103.9 13.4999H104.8ZM101.6 11.9999H103.9C103.9 11.2999 103.4 10.7999 102.8 10.7999C102.1 10.8999 101.7 11.2999 101.6 11.9999Z" fill="#000001"/>
</svg>
