<svg width="46" height="46" viewBox="0 0 46 46" fill="none" xmlns="http://www.w3.org/2000/svg">
<path d="M41.2984 7.44858L23.689 0.13736C23.2479 -0.0457417 22.752 -0.0458315 22.311 0.13736L4.70161 7.44858C4.03093 7.72709 3.59375 8.38187 3.59375 9.10808V17.9959C3.59375 30.2338 10.9905 41.242 22.321 45.8667C22.7562 46.0444 23.2437 46.0444 23.679 45.8667C35.0093 41.2421 42.4062 30.2338 42.4062 17.9959V9.10808C42.4062 8.38187 41.9692 7.72709 41.2984 7.44858ZM38.8125 17.9959C38.8125 28.3993 32.7031 37.9764 23 42.2514C13.5562 38.0906 7.1875 28.6813 7.1875 17.9959V10.3077L23 3.74243L38.8125 10.3077V17.9959ZM21.0139 24.0526L28.7372 16.3294C29.4389 15.6277 30.5766 15.6276 31.2784 16.3294C31.9802 17.0311 31.9801 18.1688 31.2783 18.8705L22.2845 27.8643C21.5826 28.5662 20.4449 28.5659 19.7433 27.8643L14.7216 22.8426C14.0198 22.1408 14.0198 21.0031 14.7216 20.3014C15.4234 19.5998 16.5611 19.5997 17.2628 20.3014L21.0139 24.0526Z" fill="#1169B6"/>
</svg>
