<svg width="80" height="80" viewBox="0 0 80 80" fill="none" xmlns="http://www.w3.org/2000/svg">
<rect width="80" height="80" rx="40" fill="#F1BB2F"/>
<path d="M58.4415 25.0003L58.4375 25H21.5625L21.5585 25.0003C20.6821 25.0021 20 25.722 20 26.5625V51.7757C20 52.6393 20.7016 53.3378 21.5616 53.3382H58.4375C59.3076 53.3378 60 52.6237 60 51.7757V26.5625C60 25.715 59.3088 25.0024 58.4415 25.0003ZM54.6384 28.125L40 42.6172L25.3616 28.125H54.6384ZM23.125 30.3079L31.9678 39.0625L23.125 48.0302V30.3079ZM25.3616 50.2132L34.1885 41.2613L38.9008 45.9262C39.5096 46.5289 40.4904 46.5289 41.0992 45.9262L45.8115 41.2613L54.6384 50.2132H25.3616ZM56.875 48.0302L48.0322 39.0625L56.875 30.3079V48.0302Z" fill="#1169B6"/>
</svg>
