<svg width="30" height="30" viewBox="0 0 30 30" fill="none" xmlns="http://www.w3.org/2000/svg">
<g clip-path="url(#clip0)">
<path d="M29.5887 8.83518C29.2344 8.53266 28.7343 8.46891 28.3151 8.67293L21.9024 11.7948L15.8853 4.85719C15.6628 4.60055 15.3397 4.45312 15 4.45312C14.6603 4.45312 14.3373 4.60055 14.1147 4.85719L8.09761 11.7947L1.68488 8.67287C1.26575 8.46891 0.765716 8.5326 0.411224 8.83512C0.0567316 9.13764 -0.0848308 9.6215 0.0506965 10.0674L4.50382 24.7158C4.65388 25.2095 5.10909 25.5469 5.62501 25.5469H24.375C24.8909 25.5469 25.3461 25.2095 25.4961 24.7159L29.9493 10.0675C30.0849 9.62156 29.9433 9.1377 29.5887 8.83518ZM23.5064 23.2031H6.49355L3.07454 11.9562L7.88052 14.2959C8.35771 14.5281 8.9311 14.4108 9.27874 14.0101L15 7.41357L20.7213 14.0101C21.0689 14.4109 21.6425 14.5281 22.1195 14.2959L26.9255 11.9562L23.5064 23.2031Z" fill="white"/>
</g>
<defs>
<clipPath id="clip0">
<rect width="30" height="30" fill="white"/>
</clipPath>
</defs>
</svg>
