<svg width="46" height="46" viewBox="0 0 46 46" fill="none" xmlns="http://www.w3.org/2000/svg">
<path d="M44.2031 6.82812H1.79688C0.804461 6.82812 0 7.63259 0 8.625V37.375C0 38.3674 0.804461 39.1719 1.79688 39.1719H44.2031C45.1955 39.1719 46 38.3674 46 37.375C46 36.5641 46 9.43593 46 8.625C46 7.63259 45.1955 6.82812 44.2031 6.82812ZM42.4062 35.5781H3.59375V24.7969H42.4062V35.5781ZM42.4062 21.2031H3.59375V17.6094H42.4062V21.2031ZM42.4062 14.0156H3.59375V10.4219H42.4062V14.0156ZM7.1875 30.1875C7.1875 29.1951 7.99196 28.3906 8.98438 28.3906H16.1719C17.1643 28.3906 17.9688 29.1951 17.9688 30.1875C17.9688 31.1799 17.1643 31.9844 16.1719 31.9844H8.98438C7.99196 31.9844 7.1875 31.1799 7.1875 30.1875Z" fill="#1169B6"/>
</svg>
