<svg width="46" height="46" viewBox="0 0 46 46" fill="none" xmlns="http://www.w3.org/2000/svg">
<path d="M33.4219 31.625H32.3607C33.4025 30.6884 34.3031 29.5982 35.0275 28.3906H42.4062C43.3987 28.3906 44.2031 27.5862 44.2031 26.5938V15.8125C44.2031 14.8201 43.3987 14.0156 42.4062 14.0156H40.5067C39.6117 6.13965 32.9083 0 24.7969 0H21.2031C13.0917 0 6.38834 6.13965 5.49332 14.0156H3.59375C2.60134 14.0156 1.79688 14.8201 1.79688 15.8125V26.5938C1.79688 27.5862 2.60134 28.3906 3.59375 28.3906H10.9725C11.6969 29.5982 12.5975 30.6884 13.6393 31.625H12.5781C5.64255 31.625 0 37.2675 0 44.2031C0 45.1955 0.804461 46 1.79688 46H44.2031C45.1955 46 46 45.1955 46 44.2031C46 37.2675 40.3575 31.625 33.4219 31.625ZM37.0156 17.6094H40.6094V24.7969H37.0156V17.6094ZM8.98438 24.7969H5.39062V17.6094H8.98438V24.7969ZM10.9724 14.0156H9.1168C9.98847 8.12709 15.0761 3.59375 21.2031 3.59375H24.7969C30.9239 3.59375 36.0115 8.12709 36.8832 14.0156H35.0276C32.5761 9.9289 28.1025 7.1875 23 7.1875C17.8975 7.1875 13.4239 9.9289 10.9724 14.0156ZM12.5781 21.2031C12.5781 15.4565 17.2533 10.7812 23 10.7812C28.7467 10.7812 33.4219 15.4565 33.4219 21.2031C33.4219 26.9497 28.7467 31.625 23 31.625C17.2533 31.625 12.5781 26.9497 12.5781 21.2031ZM3.77425 42.4062C4.60916 38.3105 8.23948 35.2188 12.5781 35.2188H33.4219C37.7605 35.2188 41.3908 38.3105 42.2258 42.4062H3.77425Z" fill="#1169B6"/>
</svg>
