<svg xmlns="http://www.w3.org/2000/svg" width="51" height="28" fill="none" viewBox="0 0 51 28">
  <path fill="#212121" fill-rule="evenodd" d="M.548 3a3 3 0 0 1 3-3h44a3 3 0 0 1 3 3v22a3 3 0 0 1-3 3h-44a3 3 0 0 1-3-3V3Z" clip-rule="evenodd"/>
  <path fill="#fff" fill-rule="evenodd" d="M18.148 10.788c-.269.338-.699.605-1.13.566-.053-.456.158-.942.404-1.242.27-.347.74-.595 1.12-.614.046.476-.13.943-.394 1.29Zm.39.657c-.379-.023-.725.121-1.004.238-.18.075-.332.138-.448.138-.13 0-.289-.067-.467-.142-.233-.098-.5-.21-.78-.205-.64.01-1.237.395-1.564 1.009-.672 1.228-.175 3.046.475 4.046.319.495.7 1.038 1.202 1.019.22-.009.38-.08.544-.155.19-.085.386-.174.693-.174.296 0 .484.087.665.17.172.078.337.154.581.15.52-.01.848-.496 1.166-.99.343-.532.494-1.05.517-1.13l.003-.008-.012-.007c-.115-.056-.993-.482-1.001-1.626-.009-.96.696-1.447.807-1.524l.013-.01c-.448-.704-1.148-.78-1.39-.799Zm3.6 6.04v-7.42h2.623c1.354 0 2.3.99 2.3 2.437 0 1.447-.965 2.447-2.336 2.447h-1.502v2.537h-1.085Zm1.085-6.45h1.25c.942 0 1.48.534 1.48 1.472 0 .937-.538 1.475-1.484 1.475h-1.246v-2.946Zm7.42 5.56c-.288.582-.92.948-1.601.948-1.009 0-1.713-.638-1.713-1.6 0-.951.682-1.499 1.941-1.58l1.354-.085v-.41c0-.604-.372-.933-1.035-.933-.547 0-.946.3-1.027.757h-.977c.031-.962.883-1.661 2.035-1.661 1.242 0 2.049.69 2.049 1.761v3.694h-1.004v-.89h-.023Zm-1.31.067c-.578 0-.946-.295-.946-.747 0-.467.354-.738 1.031-.78l1.206-.082v.419c0 .695-.555 1.19-1.29 1.19ZM35 17.776c-.434 1.3-.932 1.728-1.99 1.728-.08 0-.35-.01-.412-.028v-.89c.067.01.233.019.318.019.48 0 .749-.215.915-.771l.098-.329-1.838-5.403h1.134l1.278 4.384h.022l1.278-4.384h1.103L35 17.776Z" clip-rule="evenodd"/>
</svg>
