<svg xmlns="http://www.w3.org/2000/svg" width="50" height="28" fill="none" viewBox="0 0 50 28">
  <path fill="#374961" fill-rule="evenodd" d="M0 3a3 3 0 0 1 3-3h44a3 3 0 0 1 3 3v22a3 3 0 0 1-3 3H3a3 3 0 0 1-3-3V3Z" clip-rule="evenodd"/>
  <path fill="#FF5F00" d="M21.939 8.556h6.696v10.762h-6.696z"/>
  <path fill="#EB001B" fill-rule="evenodd" d="M22.63 13.938a6.793 6.793 0 0 1 2.656-5.38c-2.852-2.206-6.947-1.884-9.408.738a6.764 6.764 0 0 0 0 9.286c2.46 2.622 6.556 2.943 9.408.738a6.793 6.793 0 0 1-2.657-5.382Z" clip-rule="evenodd"/>
  <path fill="#F79E1B" fill-rule="evenodd" d="M36.379 17.913v.54h-.053v-.409l-.083.351h-.057l-.083-.35v.408h-.056v-.54h.077l.09.386.089-.386h.076Zm-.491.093v.447h-.047v-.447h-.1v-.093h.253v.093h-.106Zm.652-4.068c0 2.62-1.521 5.01-3.917 6.155a7.048 7.048 0 0 1-7.338-.775 6.804 6.804 0 0 0 2.658-5.381c0-2.1-.98-4.083-2.658-5.381a7.048 7.048 0 0 1 7.338-.776c2.396 1.145 3.916 3.536 3.916 6.156v.002Z" clip-rule="evenodd"/>
</svg>
