<svg xmlns="http://www.w3.org/2000/svg" width="35" height="35" fill="none" viewBox="0 0 35 35">
  <rect width="35" height="35" fill="#37AEE2" rx="17.5"/>
  <path fill="#fff" d="M17.5 10.274c-1.006 0-1.948.19-2.827.572a7.35 7.35 0 0 0-3.867 3.867 7.032 7.032 0 0 0-.572 2.827c0 1.006.19 1.948.572 2.827.38.889.898 1.66 1.552 2.315a7.532 7.532 0 0 0 2.315 1.552c.879.381 1.821.572 2.827.572s1.948-.19 2.827-.572a7.351 7.351 0 0 0 2.3-1.552 7.185 7.185 0 0 0 1.567-2.315c.381-.879.572-1.821.572-2.827s-.19-1.948-.572-2.827a7.229 7.229 0 0 0-1.567-2.3 7.229 7.229 0 0 0-2.3-1.567 7.032 7.032 0 0 0-2.827-.572Zm3.574 4.98-1.201 5.626c-.039.195-.117.317-.234.366-.117.049-.26.03-.425-.058l-1.816-1.348-.865.85a1.056 1.056 0 0 1-.16.131.4.4 0 0 1-.206.044l.117-1.845 3.37-3.047c.077-.059.082-.098.014-.118-.059-.029-.137-.014-.234.044l-4.16 2.623-1.802-.557c-.196-.069-.293-.156-.293-.264.01-.117.136-.224.38-.322l7.002-2.695c.166-.059.303-.04.41.058.118.098.152.269.103.513Z"/>
</svg>
