<svg xmlns="http://www.w3.org/2000/svg" width="35" height="35" fill="none" viewBox="0 0 35 35">
  <rect width="35" height="35" fill="#3CF" rx="17.5"/>
  <path fill="#fff" d="M23.462 14.493v.396c0 1.015-.19 2.04-.571 3.076a8.807 8.807 0 0 1-1.685 2.812c-.732.84-1.645 1.529-2.74 2.066-1.083.527-2.333.79-3.75.79a9.15 9.15 0 0 1-1.274-.087c-.42-.069-.83-.161-1.23-.278a9.438 9.438 0 0 1-1.143-.425A10.255 10.255 0 0 1 10 22.257l.366.03h.381a6.13 6.13 0 0 0 2.036-.338 6.357 6.357 0 0 0 1.773-.967 3.106 3.106 0 0 1-1.802-.615 3.055 3.055 0 0 1-1.07-1.523c.098.02.191.034.279.044h.308c.136 0 .273-.005.41-.015.136-.02.268-.049.395-.088a2.982 2.982 0 0 1-1.758-1.04 3.009 3.009 0 0 1-.703-1.977v-.03c.205.108.425.196.66.264a3 3 0 0 0 .717.117 3.13 3.13 0 0 1-.996-1.084 3.02 3.02 0 0 1-.366-1.465c0-.293.034-.566.102-.82.079-.264.181-.508.308-.732a9.139 9.139 0 0 0 2.783 2.255 9.025 9.025 0 0 0 1.714.66 8.318 8.318 0 0 0 1.846.293c-.02-.108-.04-.22-.059-.337a4.815 4.815 0 0 1-.014-.366 3.027 3.027 0 0 1 .893-2.168c.283-.284.61-.503.982-.66a2.908 2.908 0 0 1 1.2-.249c.44 0 .85.088 1.231.264.39.176.728.415 1.011.718a5.742 5.742 0 0 0 1.01-.293 5.98 5.98 0 0 0 .938-.454 2.885 2.885 0 0 1-.512.967 3.156 3.156 0 0 1-.835.732c.312-.04.615-.098.908-.176.303-.088.59-.19.864-.308a6.49 6.49 0 0 1-.703.865 8.451 8.451 0 0 1-.835.732Z"/>
</svg>
