<svg xmlns="http://www.w3.org/2000/svg" width="35" height="35" fill="none" viewBox="0 0 35 35">
  <rect width="35" height="35" fill="#0274B3" rx="17.5"/>
  <path fill="#fff" d="M13.882 23.165h-2.725v-8.76h2.725v8.76Zm-1.362-9.96c-.44 0-.816-.157-1.128-.47a1.546 1.546 0 0 1-.454-1.113c0-.44.15-.81.454-1.113a1.538 1.538 0 0 1 1.128-.469c.43 0 .795.156 1.098.469.313.303.469.674.469 1.113 0 .43-.156.8-.469 1.113a1.474 1.474 0 0 1-1.098.47Zm11.543 9.96h-2.725v-4.263a6.44 6.44 0 0 0-.19-1.538c-.118-.517-.523-.776-1.216-.776-.713 0-1.167.23-1.363.688a4.112 4.112 0 0 0-.278 1.553v4.336h-2.71v-8.76h2.608v1.201h.043c.176-.351.484-.673.923-.966.44-.303.987-.455 1.64-.455.694 0 1.256.108 1.685.323.42.215.747.508.982.879.234.37.395.81.483 1.318.078.508.117 1.06.117 1.655v4.805Z"/>
</svg>
