<svg xmlns="http://www.w3.org/2000/svg" width="35" height="35" fill="none" viewBox="0 0 35 35">
  <rect width="35" height="35" fill="#CB2027" rx="17.5"/>
  <path fill="#fff" d="M24.766 17.54c0 1.006-.19 1.948-.572 2.827a7.185 7.185 0 0 1-1.567 2.315 7.351 7.351 0 0 1-2.3 1.552 7.034 7.034 0 0 1-2.827.572 6.85 6.85 0 0 1-1.099-.088 6.353 6.353 0 0 1-1.054-.235c.146-.244.312-.542.498-.893a5.54 5.54 0 0 0 .41-1.01c.039-.167.122-.494.249-.982l.205-.747c.117.224.332.42.645.585.312.166.649.25 1.01.25.547 0 1.055-.118 1.524-.352a3.648 3.648 0 0 0 1.186-.967 4.63 4.63 0 0 0 .777-1.435 5.314 5.314 0 0 0 .293-1.773 4 4 0 0 0-.352-1.67 4.147 4.147 0 0 0-.952-1.318 4.141 4.141 0 0 0-1.421-.879 4.762 4.762 0 0 0-1.758-.322c-.781 0-1.475.122-2.08.366a4.535 4.535 0 0 0-1.509.981 4 4 0 0 0-.908 1.392 4.526 4.526 0 0 0-.308 1.655c0 .537.132 1.09.396 1.655.264.567.625.953 1.084 1.158.068.039.122.049.161.03.04-.02.063-.06.073-.118a23.083 23.083 0 0 1 .205-.82.182.182 0 0 0 0-.103.195.195 0 0 0-.044-.117 2.16 2.16 0 0 1-.395-.718 3.13 3.13 0 0 1-.146-.937c0-.4.073-.791.22-1.172.146-.371.36-.703.644-.996a3.082 3.082 0 0 1 1.025-.718 3.5 3.5 0 0 1 1.392-.264c.449 0 .86.073 1.23.22.371.146.689.351.952.615.274.254.484.562.63.923.147.361.22.762.22 1.201 0 .977-.22 1.777-.66 2.402-.439.616-.98.923-1.625.923-.352 0-.64-.127-.864-.38-.225-.264-.293-.577-.206-.938.098-.43.22-.86.367-1.29.156-.439.234-.815.234-1.127a1.15 1.15 0 0 0-.234-.718c-.147-.205-.376-.307-.689-.307-.361 0-.674.17-.937.512-.254.332-.381.752-.381 1.26 0 .322.034.581.102.776l.117.293-.117.484a165.35 165.35 0 0 0-.542 2.33c-.097.39-.16.658-.19.805a4.52 4.52 0 0 0-.088 1.069c.01.39.03.727.059 1.01a7.36 7.36 0 0 1-3.325-2.622 7.751 7.751 0 0 1-.953-1.933 7.226 7.226 0 0 1-.337-2.212c0-1.006.19-1.948.572-2.827a7.35 7.35 0 0 1 3.867-3.867 7.032 7.032 0 0 1 2.827-.572c1.006 0 1.948.19 2.827.572a7.2 7.2 0 0 1 2.3 1.567 7.229 7.229 0 0 1 1.567 2.3 7.03 7.03 0 0 1 .572 2.827Z"/>
</svg>
