<svg xmlns="http://www.w3.org/2000/svg" width="20" height="19" fill="none" viewBox="0 0 20 19">
  <path fill="#fff" d="M18.625 8.844H3.391l6.539-6.54a.659.659 0 0 0 .164-.257.829.829 0 0 0 .07-.328.76.76 0 0 0-.258-.586.734.734 0 0 0-.562-.258.883.883 0 0 0-.352.07.99.99 0 0 0-.258.188L.79 9.078a.887.887 0 0 0-.187.281.958.958 0 0 0-.047.305c0 .11.015.219.047.328a.99.99 0 0 0 .187.258l7.945 7.969c.079.062.164.117.258.164.11.047.227.07.352.07a.767.767 0 0 0 .562-.234.833.833 0 0 0 .258-.61.673.673 0 0 0-.07-.304.64.64 0 0 0-.164-.282l-6.54-6.515h15.235c.234 0 .43-.078.586-.235a.876.876 0 0 0 .234-.609.795.795 0 0 0-.234-.586.795.795 0 0 0-.586-.234Z"/>
</svg>
