<svg width="64" height="64" viewBox="0 0 64 64" fill="none" xmlns="http://www.w3.org/2000/svg">
<rect width="64" height="64" rx="32" fill="#F1BB2F"/>
<g clip-path="url(#clip0)">
<path d="M36.8417 23.7014C37.4146 23.7014 37.879 23.237 37.879 22.6641C37.879 22.0912 37.4146 21.6267 36.8417 21.6267C36.2688 21.6267 35.8044 22.0912 35.8044 22.6641C35.8044 23.237 36.2688 23.7014 36.8417 23.7014Z" fill="#1169B6"/>
<path d="M47.6082 22.2921C47.2258 21.7421 46.6234 21.4002 45.9553 21.3542L42.4999 21.1164C41.191 18.6444 38.5307 16.9709 35.5681 16.8013C33.3107 16.672 31.0876 17.4308 29.4692 18.8834C27.9831 20.2174 27.1108 22.0182 27.0128 23.9542C26.8967 26.2506 27.4927 27.9884 28.8319 29.2438C28.384 29.4512 27.9218 29.681 27.4328 29.9393C24.8082 31.3265 23.4242 30.7948 20.4171 29.0409C19.0805 28.2609 17.7354 28.5236 16.9069 29.726C15.9481 31.1176 15.7319 33.7387 16.3427 36.5664C16.7356 38.3853 17.8109 41.7722 20.599 44.0195C23.1207 46.0524 26.7969 47.2125 30.7053 47.2125C30.7556 47.2125 30.806 47.2123 30.8564 47.2119C34.7811 47.1819 38.3769 46.0027 40.7218 43.9765C42.0227 42.8525 43.0118 41.5245 43.6617 40.0292C44.2708 38.6276 44.549 37.1182 44.466 35.6642C44.325 33.1903 43.1573 31.0192 41.258 29.6945C41.7637 29.1968 42.1571 28.5767 42.3945 27.9117C46.2828 27.6509 47.5187 25.4796 47.9105 24.1524C48.098 23.5163 47.988 22.8382 47.6082 22.2921ZM42.3945 35.7824C42.5329 38.2094 41.4287 40.6238 39.3652 42.4068C37.3871 44.1159 34.28 45.1112 30.8403 45.1374C27.3474 45.1627 24.0884 44.168 21.9008 42.4045C20.2273 41.0553 18.9404 38.7678 18.3704 36.1283C17.9724 34.2858 17.9287 31.8993 18.6152 30.9029C18.7556 30.6991 18.8666 30.5382 19.3716 30.8328C21.3094 31.963 22.9355 32.7943 24.7648 32.7942C25.8661 32.7941 27.0414 32.4926 28.4018 31.7735C29.0596 31.4261 29.6623 31.1353 30.2443 30.8843C30.7979 30.6457 31.1711 30.1457 31.2428 29.5471C31.3143 28.9493 31.0699 28.3759 30.589 28.0139C29.8842 27.4832 28.9615 26.4958 29.0846 24.0589C29.1544 22.6791 29.7831 21.3893 30.8549 20.4272C32.0649 19.341 33.739 18.7742 35.4493 18.8724C37.7467 19.0039 39.7932 20.3106 40.7362 22.225L40.388 23.0225C39.821 24.3214 39.8661 25.7935 40.4931 27.0461C40.3467 27.5678 40.009 28.0804 39.5827 28.4076C39.1433 28.7448 38.8977 29.2748 38.9254 29.8253C38.9531 30.3746 39.25 30.8759 39.7192 31.1661C39.8238 31.2309 39.9279 31.2984 40.0277 31.3664C41.4263 32.3204 42.2889 33.93 42.3945 35.7824ZM45.9206 23.565C45.5109 24.9524 44.2705 25.7176 42.2298 25.8442C41.9945 25.2041 42.0107 24.4911 42.2894 23.8524L42.5738 23.201L45.8129 23.4239C45.8611 23.4272 45.8895 23.4542 45.9049 23.4763C45.9343 23.5186 45.924 23.5535 45.9206 23.565Z" fill="#1169B6"/>
<path d="M29.5818 33.535C26.0316 33.535 23.2507 35.5316 23.2507 38.0805C23.2507 40.6293 26.0317 42.6259 29.5818 42.6259C33.132 42.6259 35.9129 40.6294 35.9129 38.0805C35.9129 35.5316 33.132 33.535 29.5818 33.535ZM29.5818 40.5514C27.3144 40.5514 25.3253 39.3968 25.3253 38.0805C25.3253 36.7643 27.3144 35.6097 29.5818 35.6097C31.8493 35.6097 33.8383 36.7643 33.8383 38.0805C33.8383 39.3968 31.8493 40.5514 29.5818 40.5514Z" fill="#1169B6"/>
</g>
<defs>
<clipPath id="clip0">
<rect width="32" height="32" fill="white" transform="translate(16 16)"/>
</clipPath>
</defs>
</svg>
