<svg width="64" height="64" viewBox="0 0 64 64" fill="none" xmlns="http://www.w3.org/2000/svg">
<rect width="64" height="64" rx="32" fill="#F1BB2F"/>
<path d="M32.8202 27.1954C31.7134 27.1954 30.7456 27.6652 30.0077 28.5572C29.2697 27.6652 28.302 27.1954 27.1952 27.1954C25.0924 27.1954 23.4452 28.8967 23.4452 31.0686C23.4453 33.3782 25.3379 34.9142 27.9575 37.0402C28.4206 37.4161 28.8995 37.8047 29.4076 38.2281C29.7553 38.5178 30.2602 38.5179 30.6079 38.2281C31.1161 37.8047 31.595 37.416 32.0582 37.0401C34.6776 34.9142 36.5702 33.3782 36.5702 31.0686C36.5702 28.8967 34.923 27.1954 32.8202 27.1954ZM30.8766 35.5841C30.5941 35.8134 30.3057 36.0474 30.0077 36.2918C29.7097 36.0475 29.4214 35.8135 29.139 35.5842C26.8394 33.718 25.3202 32.4851 25.3202 31.0684C25.3203 30.0999 25.9775 29.0704 27.1953 29.0704C28.5838 29.0704 29.0847 30.6632 29.1083 30.7409C29.2254 31.1398 29.5908 31.4169 30.007 31.4169C30.4248 31.4169 30.7914 31.1431 30.907 30.7416C30.9276 30.6733 31.4272 29.0704 32.8202 29.0704C34.038 29.0704 34.6952 30.0999 34.6952 31.0685C34.6952 32.4851 33.1761 33.718 30.8766 35.5841Z" fill="#1169B6"/>
<path d="M41.375 25.4375H40.4375V24.9688C40.4375 23.4199 39.3584 22.1191 37.9128 21.7765L37.0145 18.1304C36.7009 16.876 35.5789 16 34.286 16H25.9639C24.671 16 23.549 16.876 23.2346 18.1335L22.3373 21.7765C20.8916 22.1191 19.8125 23.4199 19.8125 24.9688V39.0312C19.8125 40.5801 20.8916 41.8809 22.3373 42.2235L23.2354 45.8696C23.5491 47.1239 24.6711 48 25.9639 48H34.286C35.5789 48 36.7009 47.1239 37.0153 45.8665L37.9128 42.2235C39.3584 41.8809 40.4375 40.5801 40.4375 39.0312V32.9375H41.375C42.9258 32.9375 44.1875 31.6758 44.1875 30.125V28.25C44.1875 26.6992 42.9258 25.4375 41.375 25.4375ZM25.0544 18.5851C25.1589 18.167 25.5329 17.875 25.9639 17.875H34.286C34.717 17.875 35.091 18.167 35.1947 18.582L35.9597 21.6875H24.2902L25.0544 18.5851ZM35.1956 45.4149C35.091 45.833 34.717 46.125 34.286 46.125H25.9639C25.5329 46.125 25.1589 45.833 25.0552 45.418L24.2902 42.3125H35.9598L35.1956 45.4149ZM38.5625 39.0312C38.5625 39.8066 37.9316 40.4375 37.1562 40.4375H23.0938C22.3184 40.4375 21.6875 39.8066 21.6875 39.0312V24.9688C21.6875 24.1934 22.3184 23.5625 23.0938 23.5625H37.1503L37.1556 23.5627L37.1599 23.5626C37.9336 23.5646 38.5625 24.1946 38.5625 24.9688C38.5625 25.569 38.5625 38.4292 38.5625 39.0312ZM42.3125 30.125C42.3125 30.6419 41.8919 31.0625 41.375 31.0625H40.4375V27.3125H41.375C41.8919 27.3125 42.3125 27.7331 42.3125 28.25V30.125Z" fill="#1169B6"/>
</svg>
