<svg width="64" height="64" viewBox="0 0 64 64" fill="none" xmlns="http://www.w3.org/2000/svg">
<rect width="64" height="64" rx="32" fill="#F1BB2F"/>
<g clip-path="url(#clip0)">
<path d="M39 16H25C23.3457 16 22 17.3457 22 19V45C22 46.6543 23.3457 48 25 48H39C40.6543 48 42 46.6543 42 45V19C42 17.3457 40.6543 16 39 16ZM25 18H39C39.5518 18 40 18.4482 40 19V40H24V19C24 18.4482 24.4482 18 25 18ZM39 46H25C24.4482 46 24 45.5518 24 45V42H40V45C40 45.5518 39.5518 46 39 46Z" fill="#1169B6"/>
<path d="M32.7071 43.2929C33.0977 43.6835 33.0977 44.3166 32.7071 44.7071C32.3166 45.0977 31.6834 45.0977 31.2929 44.7071C30.9023 44.3166 30.9023 43.6835 31.2929 43.2929C31.6834 42.9024 32.3166 42.9024 32.7071 43.2929Z" fill="#1169B6"/>
</g>
<defs>
<clipPath id="clip0">
<rect width="32" height="32" fill="white" transform="translate(16 16)"/>
</clipPath>
</defs>
</svg>
