<svg width="64" height="64" viewBox="0 0 64 64" fill="none" xmlns="http://www.w3.org/2000/svg">
<rect width="64" height="64" rx="32" fill="#F1BB2F"/>
<g clip-path="url(#clip0)">
<path d="M47.995 26.4211C47.995 23.7524 46.9792 21.084 44.9472 19.0522C42.9787 17.084 40.3615 16 37.5775 16C34.7936 16 32.1764 17.084 30.2079 19.0522L17.6601 35.5769C15.2682 38.5806 15.4608 42.9792 18.2392 45.7571C19.7321 47.25 21.6933 47.9963 23.6544 47.9963C23.6989 47.9963 23.7433 47.9956 23.7875 47.9949V48H43.404V47.9971C45.9101 47.9363 47.9362 45.9104 47.997 43.4048H47.9999V26.4211H47.995ZM31.5346 20.3789C33.1486 18.7649 35.2948 17.876 37.5775 17.876C39.8603 17.876 42.0065 18.7649 43.6205 20.3789C46.9528 23.7107 46.9528 29.1316 43.6205 32.4634C42.0065 34.0774 39.8603 34.9663 37.5775 34.9663C35.2948 34.9663 33.1486 34.0774 31.5346 32.4634C28.2025 29.1316 28.2025 23.7107 31.5346 20.3789ZM19.5658 44.4307C17.3114 42.1765 17.3114 38.5085 19.5658 36.2544C20.6933 35.1272 22.1735 34.5637 23.6544 34.5637C25.1349 34.5637 26.6159 35.1274 27.7431 36.2544C29.9975 38.5085 29.9975 42.1765 27.7431 44.4307C25.4884 46.6848 21.8202 46.6848 19.5658 44.4307ZM43.2885 46.124C41.725 46.124 40.453 44.8523 40.453 43.2891C40.453 41.7258 41.725 40.4541 43.2885 40.4541C44.8517 40.4541 46.1237 41.7258 46.1237 43.2891C46.1237 44.8523 44.8517 46.124 43.2885 46.124ZM46.1237 39.5295C45.3341 38.9329 44.352 38.5781 43.2885 38.5781C40.6903 38.5781 38.5768 40.6914 38.5768 43.2891C38.5768 44.3525 38.9315 45.3345 39.5282 46.124H28.6757C28.8102 46.0071 28.9418 45.885 29.0697 45.7571C32.0556 42.7715 32.0556 37.9136 29.0697 34.928C27.173 33.0315 24.5211 32.3401 22.0731 32.8528L27.1649 26.1221C27.0861 28.8894 28.1002 31.6824 30.2079 33.7898C32.1764 35.7581 34.7938 36.8423 37.5775 36.8423C40.3615 36.8423 42.9789 35.7583 44.9474 33.7898C45.3871 33.3501 45.7792 32.8804 46.1237 32.3875V39.5295Z" fill="#1169B6"/>
<path d="M32.8049 26.4279V26.4213C32.8049 25.5841 33.0244 24.7611 33.4399 24.0409C33.6987 23.5922 33.5449 23.0187 33.096 22.7599C32.6472 22.5009 32.0735 22.6549 31.8147 23.1036C31.2351 24.1083 30.9287 25.2555 30.9287 26.4213V26.4279C30.9287 26.9459 31.3487 27.3658 31.867 27.3658C32.385 27.3658 32.8049 26.9459 32.8049 26.4279Z" fill="#1169B6"/>
<path d="M39.9651 30.5544C39.2442 30.9718 38.4195 31.1928 37.5803 31.1933C37.0623 31.1935 36.6426 31.6137 36.6428 32.1317C36.6431 32.6496 37.063 33.0692 37.5811 33.0692C38.7495 33.0685 39.8992 32.7602 40.9053 32.1776C41.3538 31.9181 41.5069 31.3444 41.2471 30.8959C40.9876 30.4477 40.4136 30.2946 39.9651 30.5544Z" fill="#1169B6"/>
<path d="M35.1948 30.5569C34.47 30.1384 33.865 29.5347 33.4453 28.8106C33.1855 28.3626 32.6113 28.21 32.1631 28.4698C31.7148 28.7295 31.5622 29.3035 31.8223 29.7517C32.4062 30.7588 33.248 31.5991 34.2563 32.1814C34.4043 32.2669 34.5654 32.3074 34.7246 32.3074C35.0488 32.3074 35.3643 32.1392 35.5378 31.8384C35.7971 31.3897 35.6433 30.8162 35.1948 30.5569Z" fill="#1169B6"/>
<path d="M42.3505 26.408V26.4211C42.3505 27.2603 42.13 28.085 41.7128 28.8062C41.4535 29.2546 41.6068 29.8284 42.0553 30.0876C42.203 30.1733 42.3646 30.2139 42.5241 30.2139C42.848 30.2139 43.163 30.0459 43.337 29.7454C43.9191 28.739 44.2267 27.5896 44.2267 26.4211V26.408C44.2267 25.8899 43.8068 25.47 43.2887 25.47C42.7704 25.47 42.3505 25.8899 42.3505 26.408Z" fill="#1169B6"/>
<path d="M34.7151 22.4177C34.875 22.4177 35.0371 22.3767 35.1853 22.2905C35.906 21.8723 36.7305 21.6504 37.5694 21.6489C38.0875 21.6482 38.5069 21.2275 38.5059 20.7095C38.5049 20.1919 38.0853 19.7729 37.5679 19.7729C37.5684 19.7729 37.5674 19.7729 37.5679 19.7729C36.3995 19.7749 35.2488 20.0845 34.2432 20.6682C33.7952 20.9285 33.6428 21.5024 33.9031 21.9504C34.0772 22.2502 34.3919 22.4177 34.7151 22.4177Z" fill="#1169B6"/>
<path d="M39.956 22.2825C40.6811 22.7003 41.2868 23.3033 41.7074 24.0269C41.8815 24.3265 42.196 24.4937 42.5192 24.4937C42.6794 24.4937 42.8415 24.4525 42.9899 24.3663C43.4377 24.106 43.5898 23.5318 43.3293 23.084C42.744 22.0775 41.9013 21.2381 40.8925 20.657C40.4433 20.3985 39.8698 20.5528 39.6112 21.0015C39.3527 21.4505 39.507 22.024 39.956 22.2825Z" fill="#1169B6"/>
<path d="M37.5777 29.3967C39.2188 29.3967 40.5537 28.0618 40.5537 26.4211C40.5537 24.7803 39.2188 23.4456 37.5777 23.4456C35.9365 23.4456 34.6016 24.7803 34.6016 26.4211C34.6016 28.0618 35.9365 29.3967 37.5777 29.3967ZM37.5777 25.3215C38.1841 25.3215 38.6775 25.8147 38.6775 26.4211C38.6775 27.0273 38.1841 27.5208 37.5777 27.5208C36.9712 27.5208 36.4778 27.0273 36.4778 26.4211C36.4778 25.8147 36.9712 25.3215 37.5777 25.3215Z" fill="#1169B6"/>
<path d="M23.6546 37.3669C22.0134 37.3669 20.6785 38.7019 20.6785 40.3425C20.6785 41.9834 22.0137 43.3181 23.6546 43.3181C25.2954 43.3181 26.6306 41.9834 26.6306 40.3425C26.6306 38.7019 25.2954 37.3669 23.6546 37.3669ZM23.6546 41.4421C23.0481 41.4421 22.5547 40.949 22.5547 40.3425C22.5547 39.7363 23.0481 39.2429 23.6546 39.2429C24.261 39.2429 24.7544 39.7363 24.7544 40.3425C24.7544 40.949 24.261 41.4421 23.6546 41.4421Z" fill="#1169B6"/>
<path d="M43.2886 42.0383C42.7703 42.0383 42.3504 42.4583 42.3504 42.9763V43.6018C42.3504 44.1199 42.7703 44.5398 43.2886 44.5398C43.8067 44.5398 44.2266 44.1199 44.2266 43.6018V42.9763C44.2266 42.4583 43.8067 42.0383 43.2886 42.0383Z" fill="#1169B6"/>
</g>
<defs>
<clipPath id="clip0">
<rect width="32" height="32" fill="white" transform="translate(16 16)"/>
</clipPath>
</defs>
</svg>
