<svg width="18" height="18" viewBox="0 0 18 18" fill="none" xmlns="http://www.w3.org/2000/svg">
<g clip-path="url(#clip0)">
<path d="M17.1313 5.3307C17.2286 4.9726 17.279 4.59927 17.279 4.21817C17.279 3.09116 16.8401 2.03164 16.0432 1.23475C14.3981 -0.410228 11.7214 -0.410228 10.0763 1.23478L8.99997 2.31107L7.92365 1.23475C6.27857 -0.410263 3.60182 -0.410298 1.95673 1.23475C1.15984 2.03164 0.720945 3.09119 0.720945 4.21817C0.720945 4.59927 0.771324 4.9726 0.868567 5.33074C0.247139 5.69088 -0.107731 6.41469 0.0292037 7.1529L0.831864 11.4808L4.34759 14.9075V17.9992H13.6524V14.9075L17.1681 11.4807L17.9707 7.15287H17.9708C18.1076 6.41465 17.7528 5.69081 17.1313 5.3307V5.3307ZM12.5977 16.9444H9.52728V13.2019C9.52728 12.3023 9.86996 11.4491 10.4922 10.7993L12.3555 8.92441C12.5828 8.69561 12.9528 8.69505 13.1809 8.92314C13.4088 9.15103 13.4084 9.5206 13.1801 9.74806L11.6637 11.2588L12.4095 12.0046L13.9265 10.4875C14.2361 10.178 14.4066 9.76641 14.4066 9.32864C14.4066 9.23734 14.3987 9.1473 14.3842 9.05899L15.6488 6.52982C15.7933 6.24073 16.1132 6.09357 16.4268 6.17196C16.7768 6.25947 16.9995 6.60587 16.9337 6.96063H16.9337L16.1921 10.9592L12.5976 14.4627V16.9444H12.5977ZM1.80778 10.9592L1.06622 6.9606C1.0004 6.60587 1.22305 6.25943 1.57304 6.17193C1.88646 6.09357 2.20652 6.24066 2.35109 6.52975L3.61644 9.06043C3.53351 9.5643 3.68549 10.0997 4.07334 10.4875L5.59041 12.0046L6.33619 11.2588L4.83964 9.76564C4.61162 9.5381 4.61141 9.16875 4.83919 8.94097C5.06739 8.71277 5.43759 8.71347 5.66491 8.94252L7.50771 10.7993C8.12988 11.449 8.47255 12.3023 8.47255 13.2019V16.9444H5.40222V14.4627L1.80778 10.9592ZM4.94019 1.0552C5.75059 1.0552 6.56098 1.36363 7.17791 1.98056L8.99997 3.80266L10.8221 1.98056C12.0559 0.746775 14.0635 0.74674 15.2974 1.98053C15.8951 2.57822 16.2243 3.3729 16.2243 4.21817C16.2243 4.52189 16.1811 4.81886 16.0989 5.10275C15.513 5.15538 14.9825 5.5041 14.7055 6.05809L13.7327 8.0038C13.4541 7.8 13.1194 7.68975 12.7677 7.68975C12.33 7.68975 11.9184 7.86022 11.6089 8.16977L9.71674 10.0619L9.72771 10.0728C9.43679 10.3772 9.19312 10.7157 8.99997 11.0789C8.80682 10.7157 8.56315 10.3772 8.27223 10.0728L8.2832 10.0619L6.39111 8.16977C5.81327 7.59198 4.90788 7.53678 4.26733 8.00387L3.29444 6.05809C3.01748 5.5041 2.4869 5.15545 1.90105 5.10278C1.81885 4.81889 1.77568 4.52189 1.77568 4.21814C1.77568 3.37287 2.10485 2.57819 2.70255 1.98049C3.31944 1.3636 4.1298 1.0552 4.94019 1.0552V1.0552Z" fill="#1169B6"/>
</g>
<defs>
<clipPath id="clip0">
<rect width="18" height="18" fill="white"/>
</clipPath>
</defs>
</svg>
