<svg xmlns="http://www.w3.org/2000/svg" width="51" height="28" fill="none" viewBox="0 0 51 28">
  <path fill="#FECC00" fill-rule="evenodd" d="M.677 3a3 3 0 0 1 3-3h44a3 3 0 0 1 3 3v22a3 3 0 0 1-3 3h-44a3 3 0 0 1-3-3V3Z" clip-rule="evenodd"/>
  <path fill="#D50029" d="M18.574 12.603c-.175.293-.467.802-.645 1.1-.09.15-.253.425.288.425h2.848l.844-1.42c.523-.878.045-2.708-1.826-2.708h-7.371l-1.278 2.149H18.4c.352 0 .347.165.175.454Zm-2.092 2.055c-.541 0-.378-.275-.288-.426l.65-1.095c.172-.288.177-.454-.175-.454h-3.186L10.917 17h6.259c2.067 0 3.218-1.74 3.573-2.342h-4.267ZM20.554 17h3.671l1.392-2.342h-3.671L20.553 17Zm9.473-7-1.408 2.367H26.98L28.388 10h-3.67l-2.457 4.128h8.981L33.697 10h-3.67Zm-4.163 7h3.67l1.393-2.342h-3.67c-.002 0-1.393 2.342-1.393 2.342ZM5.677 15.582v.497h5.114l.295-.497H5.677Zm5.96-.924h-5.96v.497h5.663l.296-.497ZM5.676 17h4.566l.294-.495h-4.86V17Zm34.612-.921h5.388v-.497h-5.092l-.296.497ZM39.74 17h5.936v-.495h-5.642L39.74 17Zm1.392-2.342-.295.498h4.84v-.498h-4.545Zm-4.807-.53L38.78 10h-3.887c-.002 0-2.458 4.128-2.458 4.128h3.89Zm-4.205.53-.398.672c-.461.771-.054 1.67 1.45 1.67h5.896l1.393-2.342h-8.34Z"/>
</svg>
