<svg width="30" height="30" viewBox="0 0 30 30" fill="none" xmlns="http://www.w3.org/2000/svg">
<circle cx="15" cy="15" r="15" fill="white"/>
<path d="M16.5518 20.9619C16.4925 20.9619 16.4333 20.9492 16.374 20.9238C16.3232 20.8984 16.2767 20.8646 16.2344 20.8223L11.1309 15.7188C11.0885 15.6764 11.0547 15.6299 11.0293 15.5791C11.0039 15.5199 10.9912 15.4606 10.9912 15.4014C10.9912 15.3421 11.0039 15.2871 11.0293 15.2363C11.0547 15.1771 11.0885 15.1263 11.1309 15.084L16.2344 9.98047C16.2767 9.93815 16.3232 9.9043 16.374 9.87891C16.4333 9.85352 16.4925 9.84082 16.5518 9.84082C16.6787 9.84082 16.7845 9.88737 16.8691 9.98047C16.9622 10.0651 17.0088 10.1709 17.0088 10.2979C17.0088 10.3571 16.9961 10.4163 16.9707 10.4756C16.9453 10.5264 16.9115 10.5729 16.8691 10.6152L12.083 15.4014L16.8691 20.1875C16.9115 20.2298 16.9453 20.2806 16.9707 20.3398C16.9961 20.3906 17.0088 20.4456 17.0088 20.5049C17.0088 20.6318 16.9622 20.7419 16.8691 20.835C16.7845 20.9196 16.6787 20.9619 16.5518 20.9619Z" fill="#333333"/>
</svg>
