<svg width="30" height="30" viewBox="0 0 30 30" fill="none" xmlns="http://www.w3.org/2000/svg">
<circle cx="15" cy="15" r="15" fill="white"/>
<path d="M12.4482 20.9619C12.3213 20.9619 12.2113 20.9196 12.1182 20.835C12.0335 20.7419 11.9912 20.6318 11.9912 20.5049C11.9912 20.4456 12.0039 20.3906 12.0293 20.3398C12.0547 20.2806 12.0885 20.2298 12.1309 20.1875L16.917 15.4014L12.1309 10.6152C12.0885 10.5729 12.0547 10.5264 12.0293 10.4756C12.0039 10.4163 11.9912 10.3571 11.9912 10.2979C11.9912 10.1709 12.0335 10.0651 12.1182 9.98047C12.2113 9.88737 12.3213 9.84082 12.4482 9.84082C12.5075 9.84082 12.5625 9.85352 12.6133 9.87891C12.6725 9.9043 12.7233 9.93815 12.7656 9.98047L17.8691 15.084C17.9115 15.1263 17.9453 15.1771 17.9707 15.2363C17.9961 15.2871 18.0088 15.3421 18.0088 15.4014C18.0088 15.4606 17.9961 15.5199 17.9707 15.5791C17.9453 15.6299 17.9115 15.6764 17.8691 15.7188L12.7656 20.8223C12.7233 20.8646 12.6725 20.8984 12.6133 20.9238C12.5625 20.9492 12.5075 20.9619 12.4482 20.9619Z" fill="#333333"/>
</svg>
