<svg width="64" height="64" viewBox="0 0 64 64" fill="none" xmlns="http://www.w3.org/2000/svg">
<rect width="64" height="64" rx="32" fill="#F1BB2F"/>
<g clip-path="url(#clip0)">
<path d="M47.1964 24.7221L40.9253 18.451C40.7759 18.3016 40.5856 18.1997 40.3784 18.1583L34.1637 16.9154C33.8128 16.845 33.45 16.9551 33.1971 17.208L29.4684 20.9367C29.0504 21.3547 29.0504 22.0324 29.4684 22.4504L32.4403 25.4223L16.3135 41.5493C15.8955 41.9672 15.8955 42.6449 16.3135 43.063L20.0422 46.7917C20.2512 47.0006 20.5251 47.1051 20.7989 47.1051C21.0728 47.1051 21.3468 47.0006 21.5557 46.7917L37.6828 30.6648L39.4683 32.4504C40.0041 32.9862 40.7078 33.2539 41.4115 33.2539C42.1152 33.2539 42.8189 32.9862 43.3546 32.4504L47.1964 28.6087C48.2679 27.537 48.2679 25.7936 47.1964 24.7221ZM20.7991 44.5211L18.5839 42.3059L33.9539 26.9359L36.1691 29.1511L20.7991 44.5211ZM45.6828 27.095L41.841 30.9367C41.6042 31.1735 41.2187 31.1735 40.9819 30.9367L31.7389 21.6936L34.3057 19.1267L39.6409 20.1937L45.6828 26.2357C45.9197 26.4725 45.9197 26.8581 45.6828 27.095Z" fill="#1169B6"/>
</g>
<defs>
<clipPath id="clip0">
<rect width="32" height="32" fill="white" transform="translate(16 16)"/>
</clipPath>
</defs>
</svg>
