<svg width="64" height="64" viewBox="0 0 64 64" fill="none" xmlns="http://www.w3.org/2000/svg">
<rect width="64" height="64" rx="32" fill="#F1BB2F"/>
<path d="M44.998 40.9424L37.6167 28.1907L38.8154 22.9583C39.0371 21.9939 38.697 21.0088 37.928 20.3875C37.762 20.2532 37.5832 20.1436 37.3965 20.0562V16.9375C37.3965 16.4197 36.9768 16 36.4592 16C35.9414 16 35.5217 16.4197 35.5217 16.9375V19.946C35.4228 19.9788 35.3247 20.0166 35.2283 20.0618C34.6396 20.3389 34.1606 20.6365 33.738 20.8989C32.9807 21.3691 32.5605 21.6147 32.0217 21.6147C31.4832 21.6147 31.063 21.3691 30.3057 20.8987C29.8831 20.6362 29.4043 20.3389 28.8157 20.0618C28.7192 20.0164 28.6211 19.9785 28.522 19.9458V16.9375C28.522 16.4197 28.1023 16 27.5847 16C27.0669 16 26.6472 16.4197 26.6472 16.9375V20.0559C26.4609 20.1433 26.2822 20.2527 26.1165 20.3865C25.3474 21.0078 25.0068 21.9924 25.228 22.9565C25.228 22.9565 26.2651 27.4817 26.4107 28.1162L18.9924 40.6433C18.9885 40.6504 18.9844 40.6572 18.9805 40.6643C18.74 41.0955 18.6018 41.5649 18.5696 42.0596C18.4512 43.8794 19.8352 45.4563 21.655 45.575C22.1289 45.6057 22.6013 45.5344 23.0413 45.3679C23.4243 46.1147 24.0781 46.6897 24.8823 46.9744C25.7068 47.2661 26.6003 47.2207 27.3814 46.856C27.929 47.4844 28.6987 47.886 29.5383 47.9724C30.376 48.0586 31.2095 47.8228 31.8726 47.321C32.4478 47.7612 33.1533 48 33.8801 48C33.9878 48 34.0962 47.9946 34.2046 47.9841C35.0391 47.9023 35.8052 47.51 36.3552 46.8928C36.7834 47.1328 37.262 47.2749 37.7568 47.3071C39.0095 47.3887 40.1948 46.748 40.822 45.6851C41.1804 45.8457 41.5679 45.9421 41.9612 45.9678C42.0342 45.9727 42.1064 45.9749 42.1785 45.9749C43.9048 45.9749 45.3628 44.6294 45.4765 42.8823C45.5212 42.197 45.3557 41.5266 44.998 40.9424ZM29.3164 22.4912C30.1426 23.0046 30.9231 23.4895 32.0217 23.4895C33.1204 23.4895 33.9009 23.0046 34.7273 22.4915C35.125 22.2444 35.5364 21.989 36.0266 21.7583C36.2771 21.6404 36.5339 21.6714 36.7495 21.8455C36.9658 22.0205 37.0508 22.2666 36.9883 22.5383L35.8372 27.5618H28.207C28.0718 26.9724 27.0554 22.5376 27.0554 22.5376C26.9932 22.2659 27.0779 22.02 27.2944 21.845C27.51 21.6709 27.7666 21.6399 28.0171 21.7578C28.5073 21.9888 28.9187 22.2441 29.3164 22.4912ZM43.6057 42.7605C43.5542 43.5488 42.8703 44.1475 42.083 44.0969C41.8511 44.0818 41.6335 44.0137 41.4365 43.8948C41.0657 43.6704 40.6172 43.6169 40.2053 43.7478C39.7939 43.8787 39.4585 44.1816 39.2854 44.5791C39.0449 45.1309 38.4795 45.4751 37.8784 45.4363C37.6123 45.4189 37.3577 45.3286 37.1421 45.175C36.469 44.6956 35.531 44.8525 35.0508 45.5254C34.8113 45.8616 34.436 46.0774 34.0215 46.1182C33.603 46.1592 33.2056 46.0244 32.9023 45.739C32.6145 45.4678 32.2444 45.332 31.8738 45.332C31.5066 45.332 31.1389 45.4656 30.8521 45.7329C30.5464 46.0173 30.148 46.1501 29.73 46.1072C29.3174 46.0649 28.9443 45.8477 28.7063 45.5117C28.2571 44.8777 27.3826 44.6924 26.7149 45.0898C26.3506 45.3066 25.9107 45.3494 25.5078 45.2068C25.1033 45.0637 24.7866 44.7522 24.6394 44.3525C24.4895 43.9465 24.1729 43.625 23.7703 43.4705C23.3677 43.3157 22.917 43.3425 22.5342 43.5439C22.3023 43.6658 22.0403 43.7209 21.7766 43.7041C20.9885 43.6526 20.3889 42.9697 20.4404 42.1814C20.4541 41.9705 20.512 41.7703 20.6128 41.5869L27.8076 29.4368L36.1719 29.4375L43.3816 41.8923C43.3862 41.9001 43.3909 41.908 43.3955 41.9158C43.5525 42.1694 43.625 42.4614 43.6057 42.7605Z" fill="#1169B6"/>
</svg>
