<svg width="64" height="64" viewBox="0 0 64 64" fill="none" xmlns="http://www.w3.org/2000/svg">
<rect width="64" height="64" rx="32" fill="#F1BB2F"/>
<path d="M47.8999 27.7697C45.2791 22.5277 46.3784 16 38.826 16C38.8242 16 36.886 16.0007 35.7495 16.001C35.2319 16.0011 34.8123 16.422 34.8123 16.9397C34.8123 18.4904 33.5507 19.752 32 19.752C30.4492 19.752 29.1877 18.4904 29.1877 16.9397C29.1877 16.691 29.0888 16.4526 28.913 16.2768C28.7372 16.101 28.4988 16.0022 28.2502 16.0022H25.1752C17.641 16.0024 18.7013 22.567 16.1001 27.7697C15.9196 28.1306 15.9904 28.5664 16.2757 28.8517C17.6416 30.2177 19.5558 31.0012 21.5274 31.0012H22.6257V47.0626C22.6257 47.5803 23.0454 48 23.5631 48H40.4369C40.9546 48 41.3744 47.5803 41.3744 47.0626V31.0012H42.4727C44.4442 31.0012 46.3584 30.2177 47.7243 28.8517C48.0096 28.5664 48.0804 28.1306 47.8999 27.7697V27.7697ZM42.4727 29.1263H41.3744V26.314C41.3744 25.7963 40.9546 25.3766 40.4369 25.3766C39.9192 25.3766 39.4995 25.7963 39.4995 26.314V46.1251H24.5005V26.314C24.5005 25.7963 24.0808 25.3766 23.5631 25.3766C23.0454 25.3766 22.6257 25.7963 22.6257 26.314V29.1263H21.5274C20.2712 29.1263 19.0491 28.705 18.0862 27.9542C20.5546 22.4302 19.4696 17.8772 25.1754 17.8771H27.407C27.8425 20.0138 29.7364 21.6268 32 21.6268C34.2638 21.6268 36.1578 20.0137 36.5931 17.8756C37.4067 17.8754 38.8246 17.8749 38.8263 17.8749C44.5489 17.8749 43.4425 22.4324 45.9137 27.9543C44.9508 28.705 43.7288 29.1263 42.4727 29.1263Z" fill="#1169B6"/>
</svg>
