<svg width="18" height="18" viewBox="0 0 18 18" fill="none" xmlns="http://www.w3.org/2000/svg">
<g clip-path="url(#clip0)">
<path d="M11.7235 4.33214C12.0457 4.33214 12.307 4.07091 12.307 3.74865C12.307 3.4264 12.0457 3.16517 11.7235 3.16517C11.4012 3.16517 11.14 3.4264 11.14 3.74865C11.14 4.07091 11.4012 4.33214 11.7235 4.33214Z" fill="#333333"/>
<path d="M17.7796 3.53944C17.5645 3.23003 17.2256 3.03776 16.8499 3.01185L14.9062 2.87811C14.17 1.48757 12.6735 0.546265 11.007 0.45085C9.73727 0.378147 8.48676 0.804945 7.57642 1.62205C6.74048 2.37239 6.2498 3.38538 6.19471 4.47439C6.12939 5.7661 6.46464 6.74359 7.21797 7.44973C6.966 7.56642 6.70602 7.69569 6.43096 7.84099C4.95464 8.62128 4.17614 8.32221 2.48463 7.33562C1.73277 6.89687 0.976175 7.04463 0.510108 7.721C-0.02919 8.50379 -0.150796 9.97814 0.192787 11.5687C0.41378 12.5918 1.01864 14.497 2.58693 15.7611C4.00542 16.9046 6.07324 17.5571 8.27174 17.5571C8.30001 17.5571 8.32838 17.557 8.35672 17.5568C10.5644 17.5399 12.587 16.8766 13.906 15.7369C14.6378 15.1046 15.1942 14.3576 15.5597 13.5165C15.9024 12.7282 16.0588 11.8791 16.0121 11.0612C15.9328 9.66968 15.276 8.44842 14.2076 7.70328C14.4921 7.4233 14.7134 7.07451 14.8469 6.70045C17.0341 6.55378 17.7293 5.33237 17.9497 4.58583C18.0552 4.22804 17.9932 3.84663 17.7796 3.53944ZM14.8469 11.1277C14.9248 12.4929 14.3037 13.851 13.1429 14.8539C12.0303 15.8153 10.2825 16.3751 8.34765 16.3899C6.38294 16.4042 4.54971 15.8446 3.3192 14.8526C2.37786 14.0938 1.65399 12.807 1.33333 11.3223C1.10945 10.2859 1.08488 8.94346 1.47104 8.38303C1.55003 8.26838 1.61247 8.17786 1.89653 8.34355C2.98652 8.97932 3.90122 9.44693 4.93021 9.44686C5.54966 9.44679 6.21078 9.27723 6.97599 8.87272C7.34604 8.67732 7.68502 8.51374 8.01243 8.37255C8.32381 8.23833 8.53376 7.95708 8.57405 7.62038C8.61427 7.28408 8.47681 6.96159 8.20632 6.75796C7.80986 6.45942 7.29085 5.90402 7.36007 4.53327C7.39938 3.75709 7.75301 3.03161 8.35591 2.49041C9.0365 1.87946 9.97816 1.56059 10.9402 1.61586C12.2325 1.68983 13.3836 2.42481 13.9141 3.50168L13.7183 3.95027C13.3993 4.68093 13.4247 5.50897 13.7774 6.21353C13.695 6.50698 13.5051 6.79534 13.2653 6.97938C13.0181 7.16905 12.88 7.46717 12.8955 7.77683C12.9111 8.08585 13.0781 8.36781 13.3421 8.53107C13.4009 8.56749 13.4594 8.6055 13.5156 8.64371C14.3023 9.18034 14.7875 10.0857 14.8469 11.1277ZM16.8303 4.25543C16.5999 5.03587 15.9022 5.46625 14.7543 5.53751C14.6219 5.17744 14.631 4.77638 14.7878 4.41712L14.9478 4.05068L16.7697 4.17605C16.7969 4.17791 16.8129 4.1931 16.8215 4.20554C16.838 4.22935 16.8322 4.24896 16.8303 4.25543Z" fill="#333333"/>
<path d="M7.63977 9.86354C5.64278 9.86354 4.07854 10.9866 4.07854 12.4204C4.07854 13.8541 5.64282 14.9772 7.63977 14.9772C9.63673 14.9772 11.201 13.8541 11.201 12.4204C11.201 10.9866 9.63673 9.86354 7.63977 9.86354ZM7.63977 13.8103C6.36433 13.8103 5.24548 13.1608 5.24548 12.4204C5.24548 11.68 6.36433 11.0306 7.63977 11.0306C8.91521 11.0306 10.0341 11.68 10.0341 12.4204C10.0341 13.1608 8.91521 13.8103 7.63977 13.8103Z" fill="#333333"/>
</g>
<defs>
<clipPath id="clip0">
<rect width="18" height="18" fill="white"/>
</clipPath>
</defs>
</svg>
