<svg width="18" height="18" viewBox="0 0 18 18" fill="none" xmlns="http://www.w3.org/2000/svg">
<g clip-path="url(#clip0)">
<path fill-rule="evenodd" clip-rule="evenodd" d="M8.41703 0.582883C8.41703 0.260549 8.67816 0 8.99991 0C9.32166 0 9.58279 0.260549 9.58279 0.582883V3.9432C9.58279 3.9476 9.58275 3.95198 9.58265 3.95635C10.0738 4.08094 10.4438 4.50686 10.4706 5.02685L10.6337 7.46641C13.9481 8.16922 16.2859 10.9954 16.2859 14.5837C16.2859 14.906 16.0248 15.1666 15.7031 15.1666H11.5824C11.5892 15.2436 11.5926 15.3212 11.5926 15.3992C11.5921 16.8331 10.4251 18.0001 8.99124 18.0001C7.55736 18.0001 6.39043 16.8331 6.39043 15.3992C6.39043 15.3215 6.39389 15.2438 6.40079 15.1666H2.29675C1.975 15.1666 1.71387 14.906 1.71387 14.5837C1.71387 10.9847 4.06563 8.15237 7.39575 7.46018L7.53056 5.0251C7.55883 4.50694 7.9279 4.08213 8.41719 3.95692C8.41708 3.95236 8.41703 3.94779 8.41703 3.9432V0.582883ZM8.71673 5.08572L8.57664 7.30862C8.71647 7.30135 8.85759 7.29767 8.9999 7.29767C9.15308 7.29767 9.30488 7.30193 9.45518 7.31034L9.3072 5.09738L8.71673 5.08572ZM7.57552 15.1666C7.56302 15.2433 7.55677 15.3212 7.55677 15.3992C7.55677 16.1902 8.20027 16.8343 8.99183 16.8343C9.78338 16.8343 10.4269 16.1908 10.4269 15.3992C10.4269 15.3203 10.4207 15.2426 10.4084 15.1666H7.57552ZM8.99932 8.46343C5.7072 8.46343 3.17982 10.806 2.90411 14.0008H15.0951C14.8194 10.806 12.2914 8.46343 8.99932 8.46343Z" fill="#333333"/>
</g>
<defs>
<clipPath id="clip0">
<rect width="18" height="18" fill="white"/>
</clipPath>
</defs>
</svg>
