<svg width="18" height="18" viewBox="0 0 18 18" fill="none" xmlns="http://www.w3.org/2000/svg">
<path d="M16.3114 14.0301L12.1594 6.85725L12.8337 3.91402C12.9584 3.37157 12.7671 2.81744 12.3345 2.46794C12.2411 2.39241 12.1406 2.33075 12.0355 2.28159V0.527344C12.0355 0.236069 11.7994 0 11.5083 0C11.217 0 10.981 0.236069 10.981 0.527344V2.21965C10.9253 2.23805 10.8701 2.25934 10.8159 2.28474C10.4848 2.44061 10.2153 2.60802 9.97763 2.75565C9.55163 3.02014 9.31529 3.15829 9.01221 3.15829C8.70926 3.15829 8.47291 3.02014 8.04692 2.75551C7.8092 2.60788 7.5399 2.44061 7.2088 2.28474C7.15456 2.2592 7.09935 2.23792 7.0436 2.21951V0.527344C7.0436 0.236069 6.80753 0 6.51639 0C6.22511 0 5.98905 0.236069 5.98905 0.527344V2.28145C5.88426 2.33061 5.78374 2.39214 5.69049 2.46739C5.25791 2.81689 5.06633 3.37074 5.19075 3.91306C5.19075 3.91306 5.77413 6.45845 5.85597 6.81537L1.68323 13.8619C1.68104 13.8658 1.6787 13.8697 1.67651 13.8737C1.54124 14.1162 1.46351 14.3803 1.44538 14.6585C1.37878 15.6822 2.15729 16.5692 3.18094 16.6359C3.4475 16.6532 3.71323 16.6131 3.9607 16.5195C4.17617 16.9395 4.54393 17.263 4.9963 17.4231C5.46006 17.5872 5.96268 17.5616 6.40199 17.3565C6.71002 17.71 7.14302 17.9359 7.6153 17.9845C8.08647 18.033 8.55531 17.9003 8.9283 17.6181C9.25184 17.8657 9.64873 18 10.0576 18C10.1181 18 10.1791 17.997 10.2401 17.9911C10.7095 17.9451 11.1404 17.7244 11.4498 17.3772C11.6907 17.5122 11.9598 17.5921 12.2382 17.6103C12.9428 17.6561 13.6096 17.2958 13.9624 16.6978C14.164 16.7882 14.3819 16.8425 14.6031 16.8569C14.6442 16.8596 14.6849 16.8609 14.7254 16.8609C15.6964 16.8609 16.5165 16.104 16.5805 15.1213C16.6057 14.7358 16.5126 14.3587 16.3114 14.0301V14.0301ZM7.49046 3.65131C7.95518 3.94011 8.39423 4.21284 9.01221 4.21284C9.63019 4.21284 10.0692 3.94011 10.5341 3.65144C10.7578 3.51247 10.9892 3.36882 11.2649 3.23904C11.4058 3.17271 11.5503 3.19016 11.6716 3.28807C11.7933 3.38654 11.841 3.52496 11.8059 3.67781L11.1584 6.50349H6.86644C6.79036 6.17198 6.21866 3.6774 6.21866 3.6774C6.18364 3.52455 6.23129 3.38626 6.35311 3.2878C6.47437 3.18988 6.6187 3.17244 6.7596 3.23877C7.03536 3.36868 7.26675 3.51233 7.49046 3.65131V3.65131ZM15.5282 15.0528C15.4992 15.4962 15.1146 15.8329 14.6717 15.8045C14.5412 15.796 14.4188 15.7577 14.308 15.6908C14.0994 15.5646 13.8471 15.5345 13.6155 15.6081C13.3841 15.6817 13.1954 15.8522 13.098 16.0757C12.9627 16.3861 12.6447 16.5797 12.3066 16.5579C12.1569 16.5482 12.0137 16.4973 11.8924 16.411C11.5138 16.1413 10.9862 16.2296 10.716 16.608C10.5813 16.7971 10.3703 16.9185 10.1371 16.9415C9.90168 16.9645 9.67811 16.8887 9.50755 16.7282C9.34564 16.5756 9.13745 16.4993 8.92898 16.4993C8.72244 16.4993 8.51562 16.5744 8.35426 16.7248C8.18233 16.8848 7.95821 16.9595 7.7231 16.9353C7.49101 16.9115 7.28117 16.7893 7.14728 16.6003C6.89459 16.2437 6.40268 16.1395 6.02709 16.363C5.82219 16.485 5.57472 16.509 5.34813 16.4288C5.12058 16.3483 4.94246 16.1731 4.85965 15.9483C4.77533 15.7199 4.59722 15.5391 4.37076 15.4521C4.14431 15.3651 3.8908 15.3802 3.67547 15.4935C3.545 15.562 3.39765 15.593 3.24933 15.5836C2.80604 15.5546 2.46876 15.1705 2.49773 14.727C2.50542 14.6084 2.53797 14.4958 2.59469 14.3926L6.64177 7.55818L11.3467 7.55859L15.4021 14.5644C15.4047 14.5688 15.4073 14.5732 15.4099 14.5776C15.4983 14.7203 15.539 14.8846 15.5282 15.0528V15.0528Z" fill="#333333"/>
</svg>
