<svg width="18" height="18" viewBox="0 0 18 18" fill="none" xmlns="http://www.w3.org/2000/svg">
<path d="M17.9436 6.62044C16.4694 3.67185 17.0878 0 12.8395 0C12.8385 0 11.7483 0.000421845 11.109 0.00056246C10.8178 0.000632768 10.5818 0.237393 10.5818 0.528572C10.5818 1.40084 9.87217 2.11049 8.9999 2.11049C8.12763 2.11049 7.41798 1.40084 7.41798 0.528572C7.41798 0.388695 7.36241 0.254584 7.26352 0.155696C7.16463 0.0568085 7.03052 0.00123038 6.89064 0.00126554H5.16101C0.923008 0.00133584 1.51943 3.69392 0.0562209 6.62044C-0.0452681 6.82345 -0.00547398 7.06862 0.155003 7.22909C0.923359 7.99745 2.00008 8.43817 3.10908 8.43817H3.72687V17.4727C3.72687 17.7639 3.96297 18 4.25418 18H13.7457C14.0369 18 14.273 17.7639 14.273 17.4727V8.43817H14.8908C15.9998 8.43817 17.0765 7.99748 17.8449 7.22909C18.0054 7.06862 18.0451 6.82345 17.9436 6.62044V6.62044ZM14.8908 7.38356H14.273V5.80164C14.273 5.51042 14.0369 5.27433 13.7457 5.27433C13.4545 5.27433 13.2184 5.51042 13.2184 5.80164V16.9454H4.78149V5.80164C4.78149 5.51042 4.54539 5.27433 4.25418 5.27433C3.96297 5.27433 3.72687 5.51042 3.72687 5.80164V7.38356H3.10908C2.40245 7.38356 1.71506 7.14659 1.17341 6.72425C2.56188 3.61701 1.95157 1.05595 5.16108 1.05584H6.41635C6.66133 2.25779 7.72667 3.16507 8.9999 3.16507C10.2733 3.16507 11.3387 2.25768 11.5835 1.05504C12.0412 1.05493 12.8388 1.05461 12.8397 1.05461C16.0587 1.05461 15.4364 3.61824 16.8264 6.72428C16.2848 7.14659 15.5974 7.38356 14.8908 7.38356Z" fill="#333333"/>
</svg>
