<svg width="18" height="18" viewBox="0 0 18 18" fill="none" xmlns="http://www.w3.org/2000/svg">
<g clip-path="url(#clip0)">
<path d="M17.5479 4.90628L14.0205 1.37876C13.9364 1.29476 13.8294 1.23743 13.7128 1.21416L10.2171 0.515005C10.0197 0.475429 9.81562 0.537308 9.67332 0.679611L7.57592 2.777C7.34083 3.0121 7.34083 3.39331 7.57592 3.62846L9.24762 5.30016L0.176288 14.3716C-0.0588032 14.6066 -0.0588032 14.9879 0.176288 15.223L2.27368 17.3204C2.39126 17.4379 2.54532 17.4967 2.69938 17.4967C2.85344 17.4967 3.00756 17.4379 3.12508 17.3204L12.1965 8.24907L13.2009 9.25343C13.5023 9.55482 13.8981 9.70543 14.2939 9.70543C14.6897 9.70543 15.0856 9.55482 15.387 9.25343L17.5479 7.09246C18.1507 6.48967 18.1507 5.50901 17.5479 4.90628ZM2.69944 16.0432L1.45344 14.7972L10.099 6.15155L11.3451 7.39761L2.69944 16.0432ZM16.6965 6.241L14.5356 8.40197C14.4023 8.53519 14.1855 8.53519 14.0523 8.40197L8.85308 3.20276L10.297 1.75888L13.298 2.35907L16.6965 5.75767C16.8298 5.89088 16.8298 6.10779 16.6965 6.241Z" fill="#333333"/>
</g>
<defs>
<clipPath id="clip0">
<rect width="18" height="18" fill="white"/>
</clipPath>
</defs>
</svg>
