<svg width="18" height="18" viewBox="0 0 18 18" fill="none" xmlns="http://www.w3.org/2000/svg">
<path d="M9.46137 6.29743C8.83878 6.29743 8.29442 6.56167 7.87933 7.06342C7.46421 6.56167 6.91985 6.29743 6.2973 6.29743C5.11447 6.29743 4.18793 7.25438 4.18793 8.47606C4.18796 9.77526 5.25257 10.6393 6.72607 11.8351C6.98658 12.0465 7.25598 12.2651 7.54176 12.5033C7.73734 12.6663 8.02137 12.6663 8.21694 12.5033C8.5028 12.2651 8.7722 12.0465 9.03274 11.835C10.5062 10.6392 11.5707 9.77526 11.5707 8.47606C11.5707 7.25442 10.6442 6.29743 9.46137 6.29743ZM8.36808 11.0161C8.20917 11.1451 8.04696 11.2767 7.87933 11.4141C7.71171 11.2767 7.54953 11.1451 7.39066 11.0161C6.09716 9.96637 5.24262 9.27288 5.24262 8.47599C5.24265 7.93118 5.61232 7.35208 6.29734 7.35208C7.0784 7.35208 7.36015 8.24804 7.3734 8.29174C7.43928 8.51614 7.64481 8.67199 7.87891 8.67199C8.11397 8.67199 8.32016 8.51797 8.3852 8.29213C8.39676 8.25374 8.6778 7.35208 9.46137 7.35208C10.1464 7.35208 10.5161 7.93118 10.5161 8.47603C10.5161 9.27288 9.66155 9.96637 8.36808 11.0161Z" fill="#333333"/>
<path d="M14.2734 5.30859H13.7461V5.04492C13.7461 4.17368 13.1391 3.44201 12.3259 3.24928L11.8207 1.19834C11.6443 0.49275 11.0132 0 10.2859 0H5.60471C4.87744 0 4.24631 0.49275 4.06948 1.20009L3.5647 3.24928C2.75154 3.44201 2.14453 4.17368 2.14453 5.04492V12.9551C2.14453 13.8263 2.75154 14.558 3.5647 14.7507L4.06993 16.8017C4.24635 17.5072 4.87747 18 5.60471 18H10.2859C11.0132 18 11.6443 17.5072 11.8211 16.7999L12.3259 14.7507C13.1391 14.558 13.7461 13.8263 13.7461 12.9551V9.52734H14.2734C15.1458 9.52734 15.8555 8.81764 15.8555 7.94531V6.89062C15.8555 6.01829 15.1458 5.30859 14.2734 5.30859ZM5.09309 1.45413C5.1519 1.21894 5.36228 1.05469 5.60471 1.05469H10.2859C10.5283 1.05469 10.7387 1.21894 10.797 1.45238L11.2274 3.19922H4.66323L5.09309 1.45413ZM10.7975 16.5459C10.7387 16.7811 10.5283 16.9453 10.2859 16.9453H5.60471C5.36228 16.9453 5.1519 16.7811 5.09354 16.5476L4.66323 14.8008H11.2274L10.7975 16.5459ZM12.6914 12.9551C12.6914 13.3912 12.3365 13.7461 11.9004 13.7461H3.99023C3.55409 13.7461 3.19922 13.3912 3.19922 12.9551V5.04492C3.19922 4.60877 3.55409 4.25391 3.99023 4.25391H11.8971L11.9 4.25405L11.9024 4.25398C12.3376 4.25507 12.6914 4.60944 12.6914 5.04492C12.6914 5.38256 12.6914 12.6164 12.6914 12.9551ZM14.8008 7.94531C14.8008 8.23609 14.5642 8.47266 14.2734 8.47266H13.7461V6.36328H14.2734C14.5642 6.36328 14.8008 6.59985 14.8008 6.89062V7.94531Z" fill="#333333"/>
</svg>
