<svg width="18" height="18" viewBox="0 0 18 18" fill="none" xmlns="http://www.w3.org/2000/svg">
<g clip-path="url(#clip0)">
<path d="M17.9972 5.86189C17.9972 4.36075 17.4258 2.85974 16.2828 1.71689C15.1755 0.609741 13.7033 0 12.1374 0C10.5714 0 9.09923 0.609741 7.99195 1.71689L0.933784 11.012C-0.411629 12.7016 -0.303276 15.1758 1.25953 16.7384C2.0993 17.5781 3.20246 17.9979 4.30563 17.9979C4.33062 17.9979 4.35561 17.9975 4.38047 17.9971V18H15.4147V17.9984C16.8244 17.9642 17.9641 16.8246 17.9983 15.4152H17.9999V5.86189H17.9972ZM8.7382 2.46313C9.64608 1.55525 10.8533 1.05524 12.1374 1.05524C13.4214 1.05524 14.6287 1.55525 15.5365 2.46313C17.4109 4.33727 17.4109 7.38652 15.5365 9.26065C14.6287 10.1685 13.4214 10.6685 12.1374 10.6685C10.8533 10.6685 9.64608 10.1685 8.7382 9.26065C6.86393 7.38652 6.86393 4.33727 8.7382 2.46313ZM2.00578 15.9922C0.737678 14.7243 0.737678 12.6611 2.00578 11.3931C2.63996 10.759 3.47259 10.4421 4.30563 10.4421C5.13839 10.4421 5.97143 10.7592 6.60548 11.3931C7.87357 12.6611 7.87357 14.7243 6.60548 15.9922C5.33724 17.2602 3.27387 17.2602 2.00578 15.9922ZM15.3498 16.9448C14.4703 16.9448 13.7548 16.2294 13.7548 15.3501C13.7548 14.4708 14.4703 13.7554 15.3498 13.7554C16.2291 13.7554 16.9446 14.4708 16.9446 15.3501C16.9446 16.2294 16.2291 16.9448 15.3498 16.9448ZM16.9446 13.2354C16.5004 12.8997 15.948 12.7002 15.3498 12.7002C13.8883 12.7002 12.6995 13.8889 12.6995 15.3501C12.6995 15.9483 12.899 16.5006 13.2346 16.9448H7.13007C7.20574 16.879 7.27976 16.8103 7.35172 16.7384C9.03126 15.059 9.03126 12.3264 7.35172 10.647C6.28481 9.58022 4.79314 9.1913 3.41614 9.47969L6.28028 5.69366C6.23592 7.25029 6.80639 8.82133 7.99195 10.0068C9.09923 11.1139 10.5715 11.7238 12.1374 11.7238C13.7033 11.7238 15.1756 11.114 16.2829 10.0068C16.5302 9.75943 16.7508 9.49521 16.9446 9.21794V13.2354Z" fill="#333333"/>
<path d="M9.45278 5.86567V5.86196C9.45278 5.39106 9.57623 4.92812 9.80997 4.523C9.95553 4.27059 9.86902 3.948 9.61647 3.80243C9.36406 3.65673 9.04134 3.74338 8.89577 3.99579C8.56976 4.5609 8.39741 5.20621 8.39741 5.86196V5.86567C8.39741 6.15708 8.63361 6.39329 8.92516 6.39329C9.21657 6.39329 9.45278 6.15708 9.45278 5.86567Z" fill="#333333"/>
<path d="M13.4804 8.18682C13.0748 8.42166 12.6109 8.54594 12.1389 8.54621C11.8475 8.54635 11.6115 8.78269 11.6116 9.0741C11.6117 9.36538 11.8479 9.60144 12.1394 9.60144C12.7966 9.60103 13.4433 9.42759 14.0092 9.09992C14.2615 8.95394 14.3476 8.63122 14.2015 8.37895C14.0555 8.12681 13.7327 8.04071 13.4804 8.18682Z" fill="#333333"/>
<path d="M10.7971 8.18826C10.3894 7.95288 10.0491 7.61326 9.81298 7.20595C9.66686 6.95395 9.34387 6.86812 9.09173 7.01424C8.83959 7.16036 8.75376 7.48321 8.90002 7.73535C9.22851 8.30183 9.70202 8.77451 10.2692 9.10204C10.3524 9.1501 10.443 9.1729 10.5326 9.1729C10.715 9.1729 10.8924 9.07828 10.99 8.90909C11.1359 8.65668 11.0494 8.3341 10.7971 8.18826Z" fill="#333333"/>
<path d="M14.8221 5.85448V5.86189C14.8221 6.33389 14.6981 6.79779 14.4634 7.20346C14.3176 7.45573 14.4038 7.77846 14.6561 7.9243C14.7392 7.9725 14.8301 7.9953 14.9198 7.9953C15.102 7.9953 15.2792 7.90082 15.3771 7.73177C15.7045 7.1657 15.8775 6.51915 15.8775 5.86189V5.85448C15.8775 5.56306 15.6413 5.32686 15.3499 5.32686C15.0583 5.32686 14.8221 5.56306 14.8221 5.85448Z" fill="#333333"/>
<path d="M10.5273 3.60997C10.6172 3.60997 10.7084 3.5869 10.7917 3.53842C11.1971 3.30318 11.6609 3.17834 12.1328 3.17752C12.4242 3.17711 12.6601 2.94049 12.6596 2.64908C12.659 2.35794 12.423 2.12228 12.132 2.12228C12.1322 2.12228 12.1317 2.12228 12.132 2.12228C11.4747 2.12338 10.8275 2.29752 10.2618 2.62587C10.0098 2.77226 9.9241 3.09512 10.0705 3.34712C10.1684 3.51576 10.3454 3.60997 10.5273 3.60997Z" fill="#333333"/>
<path d="M13.4752 3.53392C13.8831 3.76889 14.2238 4.1081 14.4604 4.51514C14.5583 4.68364 14.7352 4.77771 14.917 4.77771C15.0071 4.77771 15.0983 4.7545 15.1818 4.70603C15.4337 4.55963 15.5192 4.23664 15.3727 3.98477C15.0435 3.41857 14.5695 2.94643 14.002 2.61959C13.7493 2.47415 13.4267 2.56095 13.2813 2.81336C13.1359 3.06591 13.2227 3.38849 13.4752 3.53392Z" fill="#333333"/>
<path d="M12.1374 7.53566C13.0606 7.53566 13.8115 6.78474 13.8115 5.86189C13.8115 4.9389 13.0606 4.18813 12.1374 4.18813C11.2143 4.18813 10.4634 4.9389 10.4634 5.86189C10.4634 6.78474 11.2143 7.53566 12.1374 7.53566ZM12.1374 5.24336C12.4786 5.24336 12.7561 5.52077 12.7561 5.86189C12.7561 6.20288 12.4786 6.48042 12.1374 6.48042C11.7963 6.48042 11.5188 6.20288 11.5188 5.86189C11.5188 5.52077 11.7963 5.24336 12.1374 5.24336Z" fill="#333333"/>
<path d="M4.30569 12.0189C3.38256 12.0189 2.63165 12.7698 2.63165 13.6927C2.63165 14.6157 3.3827 15.3664 4.30569 15.3664C5.22868 15.3664 5.97973 14.6157 5.97973 13.6927C5.97973 12.7698 5.22868 12.0189 4.30569 12.0189ZM4.30569 14.3112C3.96457 14.3112 3.68702 14.0338 3.68702 13.6927C3.68702 13.3517 3.96457 13.0741 4.30569 13.0741C4.64682 13.0741 4.92436 13.3517 4.92436 13.6927C4.92436 14.0338 4.64682 14.3112 4.30569 14.3112Z" fill="#333333"/>
<path d="M15.3498 14.6466C15.0583 14.6466 14.8221 14.8828 14.8221 15.1742V15.526C14.8221 15.8174 15.0583 16.0536 15.3498 16.0536C15.6412 16.0536 15.8775 15.8174 15.8775 15.526V15.1742C15.8775 14.8828 15.6412 14.6466 15.3498 14.6466Z" fill="#333333"/>
</g>
<defs>
<clipPath id="clip0">
<rect width="18" height="18" fill="white"/>
</clipPath>
</defs>
</svg>
