<svg width="18" height="18" viewBox="0 0 18 18" fill="none" xmlns="http://www.w3.org/2000/svg">
<g clip-path="url(#clip0)">
<path d="M12.9375 0H5.0625C4.13195 0 3.375 0.756955 3.375 1.6875V16.3125C3.375 17.243 4.13195 18 5.0625 18H12.9375C13.868 18 14.625 17.243 14.625 16.3125V1.6875C14.625 0.756955 13.868 0 12.9375 0ZM5.0625 1.125H12.9375C13.2479 1.125 13.5 1.37714 13.5 1.6875V13.5H4.5V1.6875C4.5 1.37714 4.75214 1.125 5.0625 1.125ZM12.9375 16.875H5.0625C4.75214 16.875 4.5 16.6229 4.5 16.3125V14.625H13.5V16.3125C13.5 16.6229 13.2479 16.875 12.9375 16.875Z" fill="#333333"/>
<path d="M9.39775 15.3523C9.61743 15.5719 9.61743 15.9281 9.39775 16.1478C9.17807 16.3674 8.82193 16.3674 8.60225 16.1478C8.38257 15.9281 8.38257 15.5719 8.60225 15.3523C8.82193 15.1326 9.17807 15.1326 9.39775 15.3523Z" fill="#333333"/>
</g>
<defs>
<clipPath id="clip0">
<rect width="18" height="18" fill="white"/>
</clipPath>
</defs>
</svg>
